<svg width="1440" height="670" viewBox="0 0 1440 670" fill="none" xmlns="http://www.w3.org/2000/svg">
<path d="M827.577 309.274C827.426 294.667 827.092 280.039 826.149 265.457C826.149 265.446 826.145 265.435 826.145 265.421C826.184 265.018 826.195 264.612 826.172 264.205C825.854 257.594 820.68 253.055 813.682 252.631C749.961 248.771 686.057 250.21 622.308 252.713C558.816 255.206 495.339 258.735 431.772 259.058C395.89 259.242 359.985 258.386 324.201 255.846C317.731 255.386 311.54 261.45 311.824 267.317C312.146 273.949 317.269 278.265 324.201 278.787C326.068 278.927 327.935 279.064 329.801 279.193C329.848 279.316 329.902 279.438 329.953 279.557C329.763 281.164 329.503 282.772 329.359 284.322C329.06 287.524 328.777 290.728 328.505 293.933C327.958 300.339 327.465 306.752 327.011 313.165C326.106 325.995 325.365 338.832 324.752 351.677C323.525 377.369 322.796 403.079 322.21 428.793C322.074 434.836 321.713 440.932 322.198 446.968C322.637 452.395 323.545 457.967 325.866 462.959C320.646 464.301 316.31 468.714 316.566 473.973C316.865 480.123 321.989 485.457 328.901 485.403C390.651 484.918 452.401 484.011 514.143 483.101C575.567 482.195 636.995 480.933 698.364 478.228C732.794 476.71 767.201 474.732 801.558 472.131C808.051 471.638 814.366 467.16 814.047 460.556C814.012 459.841 813.904 459.118 813.725 458.402C815.414 457.183 816.95 455.499 817.944 453.928C819.694 451.151 819.935 448.288 820.3 445.166C821.049 438.788 821.744 432.404 822.38 426.016C823.665 413.121 824.713 400.209 825.524 387.278C827.162 361.313 827.849 335.29 827.577 309.274Z" fill="#C4C1BB"/>
<path d="M854.047 332.768C853.818 322.902 854.614 311.867 844.014 306.227C839.384 303.763 833.969 303.533 828.773 303.224C823.828 302.932 818.875 302.778 813.923 302.717C804.558 302.605 751.529 302.184 748.436 302.08C731.374 301.501 725.804 303.454 719.559 313.478C716.808 317.895 716.944 338.012 716.738 342.577C716.338 351.45 713.563 391.033 718.585 398.302C725.082 407.701 814.843 406.093 833.321 403.964C846.09 402.493 850.558 395.055 851.85 383.653C852.727 375.847 854.249 341.523 854.047 332.768Z" fill="#E3E0DA"/>
<path d="M834.854 325.19C832.708 317.345 824.088 312.849 815.988 311.734C809.518 310.845 802.951 310.529 796.427 310.148C784.736 309.464 772.969 309.137 761.294 310.22C754.587 310.842 747.865 311.741 741.321 313.263C737.355 314.183 733.648 315.507 730.776 318.302C725.602 323.334 725.548 330.948 729.286 336.699C732.41 341.501 737.258 344.134 742.652 345.569C743.634 346.263 744.702 346.864 745.839 347.357C752.701 350.31 760.832 350.418 768.292 350.9C780.184 351.669 792.072 351.795 803.878 350.101C809.708 349.263 815.2 347.558 820.533 345.213C828.862 341.544 837.474 334.764 834.854 325.19Z" fill="#356B68"/>
<path d="M729.674 367.546C732.798 369.79 737.646 371.021 743.041 371.693C744.023 372.017 745.09 372.297 746.227 372.528C753.089 373.909 761.22 373.959 768.68 374.182C780.572 374.542 792.46 374.599 804.267 373.808C810.096 373.416 815.588 372.617 820.921 371.52C829.25 369.808 837.862 366.636 835.243 362.162C833.096 358.493 824.476 356.392 816.376 355.871C809.906 355.453 803.339 355.306 796.815 355.13C785.125 354.81 773.357 354.659 761.682 355.162C754.975 355.453 748.253 355.874 741.71 356.583C737.743 357.014 734.036 357.633 731.164 358.939C725.991 361.298 725.936 364.856 729.674 367.546ZM815.6 379.613C809.13 379.196 802.563 379.049 796.039 378.872C784.348 378.552 772.581 378.401 760.906 378.905C754.199 379.196 747.477 379.617 740.933 380.325C736.967 380.757 733.26 381.376 730.388 382.681C725.214 385.034 725.16 388.595 728.898 391.285C732.022 393.529 736.87 394.76 742.265 395.432C743.246 395.756 744.314 396.036 745.451 396.267C752.313 397.648 760.444 397.698 767.904 397.921C779.796 398.281 791.684 398.338 803.49 397.547C809.32 397.155 814.812 396.357 820.145 395.26C828.474 393.547 837.086 390.375 834.466 385.901C832.32 382.235 823.7 380.135 815.6 379.613Z" fill="#27374D"/>
<path d="M761.368 150.808C761.313 144.395 755.682 139.442 748.878 139.233C711.211 138.068 505.596 137.241 495.028 137.715C492.451 137.831 489.874 137.953 487.297 138.079C484.289 138.226 481.044 138.197 478.168 139.05C471.155 141.132 467.173 147.528 468.57 154.146C468.659 177.924 468.776 201.703 468.884 225.478C468.997 249.919 469.098 274.359 469.206 298.8C469.315 323.121 469.428 347.44 469.532 371.761C469.637 396.083 469.746 420.405 469.858 444.727C469.913 456.949 469.971 469.171 470.025 481.393C470.041 484.389 470.049 487.385 470.068 490.381C470.095 495.636 470.153 493.234 473.813 497.287C479.204 503.258 743.134 500.927 747.683 500.445C750.951 500.1 754.172 499.424 756.52 497.053C758.74 494.813 760.246 491.978 760.18 488.863C759.264 445.885 758.604 402.888 759.462 359.903C759.897 338.358 761.41 156.12 761.368 150.808ZM687.004 383.872C687.202 370.003 687.404 356.13 687.602 342.26C687.668 337.505 687.737 332.75 687.803 327.995C688.203 324.409 688.622 320.823 689.076 317.241C689.352 325.359 689.6 333.48 689.814 341.598C688.584 357.374 687.621 373.164 686.93 388.969C686.961 387.267 686.981 385.566 687.004 383.872ZM561.299 403.683C565.115 402.313 568.674 400.604 571.301 397.594C573.979 394.526 575.823 391.386 577.073 387.577C578.043 384.613 578.54 381.509 578.862 378.376C580.337 379.502 582.052 380.343 583.713 380.768C585.933 381.322 588.154 381.322 590.37 380.768C592.493 380.218 594.332 379.221 595.897 377.782C597.938 376.304 599.727 374.214 600.927 372.103C602.731 368.927 603.372 366.086 603.818 362.561C604.167 359.809 602.169 356.227 600.15 354.356C599.285 353.554 598.194 352.831 597.003 352.259C592.613 314.568 595.194 276.557 594.763 238.718C594.732 236.006 594.686 233.298 594.616 230.586C597.344 231.913 600.542 232.384 603.539 231.485C609.112 229.812 612.24 225.618 612.725 220.302C612.788 219.633 612.846 218.964 612.908 218.295C613.312 218.882 613.731 219.464 614.169 220.029C617.173 223.91 621.299 226.23 626.64 225.565C631.254 224.989 636.055 221.727 637.045 217.256C637.092 217.044 637.134 216.831 637.181 216.623C637.883 217.126 638.609 217.59 639.354 218.011C626.201 245.887 615.07 274.579 606.325 303.911C603.539 313.263 601.004 322.675 598.675 332.135C597.228 338.012 600.616 344.918 607.381 346.346C613.723 347.684 621.163 344.58 622.716 338.278C628.281 315.658 635.213 293.322 643.445 271.406C643.208 273.525 642.972 275.643 642.739 277.765C642.541 279.56 643.282 281.664 644.381 283.441C644.361 284.725 644.342 286.009 644.318 287.29C643.86 313 642.968 338.699 641.916 364.395C641.326 378.858 640.682 393.317 640.041 407.776C639.774 413.848 645.991 419.653 652.562 419.38C654.623 419.294 656.734 418.862 658.578 417.974C658.609 419.689 658.644 421.408 658.687 423.124C658.83 428.922 663.344 433.753 669.546 434.523C675.473 435.26 681.846 431.857 683.29 426.207C684.916 419.84 685.785 413.38 686.274 406.888C685.948 417.495 685.746 428.109 685.661 438.72C682.711 438.724 679.765 438.727 676.816 438.72C675.88 438.526 674.922 438.393 673.959 438.296C637.581 434.562 600.934 433.141 564.346 434.095C560.966 434.181 557.585 434.3 554.205 434.425C554.701 424.254 555.152 414.075 555.59 403.899C557.5 404.331 559.495 404.331 561.299 403.683Z" fill="#FFFFF7"/>
<path d="M725.137 440.385C724.163 430.843 722.874 421.326 721.318 411.852C720.588 407.41 719.785 402.978 718.919 398.558C718.279 395.288 714.254 393.353 710.99 393.76C707.245 394.227 705.048 396.972 704.726 400.338C704.035 407.55 703.344 414.762 702.657 421.977C702.308 425.642 701.954 429.307 701.605 432.972C701.446 434.627 701.287 436.281 701.132 437.94C701.054 438.767 700.973 439.594 700.895 440.421C700.852 440.864 700.771 441.313 700.767 441.756C700.767 441.785 700.767 441.803 700.767 441.824C700.759 441.842 700.755 441.857 700.747 441.878C700.747 441.882 700.744 441.889 700.744 441.896C700.387 441.972 700.026 442.083 699.672 442.166C698.764 442.374 697.844 442.551 696.924 442.72C695.112 443.061 693.292 443.353 691.46 443.605C691.215 443.637 690.967 443.669 690.722 443.702C690.532 443.723 690.179 443.766 690.086 443.774C688.984 443.885 687.885 444.004 686.783 444.101C679.277 444.752 671.724 444.81 664.19 444.633C648.918 444.277 633.688 443.284 618.404 443.248C602.677 443.212 586.954 443.738 571.255 444.561C556.937 445.313 542.635 446.32 528.337 447.381C530.114 434.94 531.383 422.444 531.907 409.899C532 407.625 530.51 405.424 528.418 404.216C528.961 399.266 529.594 394.324 530.273 389.389C530.429 388.253 530.592 387.113 530.751 385.976C530.84 385.343 530.933 384.714 531.022 384.081C531.038 383.973 531.057 383.832 531.084 383.66C531.453 381.156 531.826 378.653 532.202 376.153C532.959 371.15 533.728 366.147 534.473 361.14C535.963 351.119 537.388 341.084 538.416 331.013C539.545 319.963 540.182 308.874 539.969 297.775C539.903 294.43 537.267 291.642 533.704 291.2C530.463 290.797 526.369 292.703 525.779 295.994C524.979 300.443 524.211 304.896 523.473 309.356C523.636 304.58 523.757 299.8 523.815 295.019C523.927 286.067 523.846 277.111 523.497 268.162C523.159 259.472 522.359 250.804 522.006 242.117C521.832 237.797 521.793 233.47 522.068 229.151C522.134 228.104 522.22 227.057 522.325 226.011C522.371 225.547 522.422 225.083 522.48 224.619C522.464 224.755 522.612 223.698 522.654 223.335C522.72 222.957 522.821 222.349 522.817 222.371C522.883 222.004 522.953 221.64 523.023 221.274C523.206 220.356 523.407 219.446 523.633 218.54C524.04 216.9 524.517 215.278 525.072 213.677C525.379 212.789 525.709 211.904 526.066 211.03C526.21 210.681 526.357 210.336 526.505 209.987C526.536 209.915 526.563 209.854 526.586 209.796C526.625 209.724 526.668 209.634 526.722 209.526C527.483 208.012 528.282 206.523 529.187 205.081C529.586 204.444 530.005 203.815 530.44 203.199C530.712 202.815 530.987 202.433 531.275 202.059C531.341 201.973 531.717 201.495 531.938 201.214C532.16 200.962 532.493 200.574 532.493 200.574C532.746 200.293 533.006 200.016 533.27 199.743C533.859 199.128 534.473 198.534 535.105 197.955C535.742 197.38 536.394 196.822 537.073 196.286C537.209 196.178 537.345 196.078 537.481 195.973C537.434 196.02 538.303 195.398 538.447 195.304C541.509 193.294 543.26 189.395 541.028 186.186C539.068 183.367 534.473 181.64 531.189 183.795C516.254 193.589 509.586 209.62 507.921 226.011C506.998 235.111 507.646 244.261 508.263 253.357C508.888 262.526 509.291 271.698 509.408 280.884C509.866 317.715 506.384 354.446 503.904 391.17C502.662 409.546 501.669 427.944 501.537 446.36C501.479 454.391 501.917 463.545 510.017 468.383C514.349 470.973 519.662 470.883 524.614 470.962C529.641 471.041 534.663 471.11 539.689 471.163C579.891 471.599 620.1 471.203 660.278 469.977C670.323 469.671 680.367 469.311 690.408 468.901C695.298 468.7 700.192 468.509 705.083 468.264C709.542 468.045 714.083 467.559 718.058 465.52C728.145 460.359 726.037 449.23 725.137 440.385Z" fill="#F2EFE9"/>
<path d="M1385.67 129.288C1283.7 126.983 871.307 128.27 812.495 129.313C808.753 129.378 801.627 131.471 800.84 145.215C800.696 147.711 801.674 239.423 802.097 282.531C802.524 326.369 802.963 370.204 803.397 414.042C803.642 438.716 803.886 463.387 804.135 488.061C804.158 490.392 804.81 492.77 805.978 494.885C808.311 500.409 813.818 504.704 820.684 504.467C856.81 503.226 1342.12 503.56 1378.06 506.592C1380.6 506.808 1383.14 507.038 1385.67 507.276V129.288Z" fill="#FFFFF7"/>
<path d="M1303.4 379.696C1302.91 375.481 1302.03 371.33 1300.51 367.327C1299.07 363.55 1297.23 359.899 1294.96 356.493C1293.25 353.932 1289.58 352.946 1286.72 354.493C1283.96 355.989 1282.85 359.55 1284.57 362.122C1286.98 365.74 1288.9 369.805 1290.12 373.891C1283.18 372.686 1276.12 374.038 1269.2 375.671C1268.97 375.686 1268.73 375.707 1268.49 375.743C1261.51 376.7 1254.49 377.545 1247.44 378.272C1247.24 378.225 1247.05 378.182 1246.86 378.132C1246.33 377.991 1245.81 377.815 1245.28 377.66C1245.14 377.621 1245.05 377.592 1244.98 377.578C1244.91 377.542 1244.82 377.495 1244.69 377.43C1243.82 376.991 1242.98 376.57 1242.16 376.049C1242 375.923 1241.84 375.794 1241.69 375.657C1241.29 375.322 1240.93 374.966 1240.58 374.599C1240.56 374.585 1240.55 374.574 1240.54 374.56C1240.44 374.423 1240.34 374.29 1240.24 374.15C1239.9 373.653 1239.62 373.143 1239.35 372.614C1237.95 369.895 1233.75 369.186 1231.11 370.614C1228.11 372.24 1227.55 375.513 1228.96 378.243C1229.05 378.426 1229.15 378.603 1229.25 378.783C1224.48 378.898 1219.73 379.304 1215.13 380.358C1201.62 378.164 1187.76 378.833 1174.11 379.829C1165.9 380.43 1157.73 380.937 1149.56 381.138C1144.28 380.908 1139.02 380.617 1133.76 380.264C1121.48 379.437 1108.73 378.232 1096.84 376.743C1094.21 376.412 1091.29 377.146 1089.98 379.329C1076.86 377.869 1063.67 377.078 1050.44 377.293C1050.15 377.297 1049.87 377.308 1049.58 377.315C1035.8 375.369 1022 373.621 1007.92 376.851C1006.28 377.229 1004.82 378.434 1004.06 379.898C1001.21 379.646 998.362 379.369 995.521 379.059C995.579 378.905 995.633 378.747 995.672 378.585C996.445 375.448 994.644 372.787 991.469 371.726C991.298 371.668 991.174 371.628 991.085 371.603C991.011 371.564 990.925 371.517 990.809 371.459C990.475 371.287 990.141 371.125 989.815 370.938C989.757 370.905 988.853 370.28 988.923 370.362C988.651 370.143 988.387 369.916 988.131 369.679C987.871 369.438 987.626 369.19 987.386 368.934C987.366 368.898 987.06 368.532 986.928 368.341C986.831 368.204 986.745 368.06 986.66 367.92C986.629 354.547 986.256 341.178 985.527 327.819C985.465 326.675 985.038 325.549 984.339 324.611C984.56 317.262 984.785 309.918 985.007 302.569C985.073 300.354 983.439 298.307 981.308 297.476C979.278 296.681 976.235 296.915 974.737 298.627C974.357 299.059 973.999 299.501 973.662 299.943C973.666 299.85 973.666 299.756 973.67 299.663C973.852 291.174 974.038 282.69 974.221 274.201C974.26 272.385 974.287 270.565 974.36 268.748C974.395 267.867 974.442 266.986 974.508 266.108C974.551 265.561 974.601 265.011 974.659 264.464C974.671 264.349 974.78 263.615 974.791 263.508C975.098 261.727 975.571 259.972 976.247 258.281C976.286 258.184 976.313 258.112 976.328 258.062C976.363 258.001 976.406 257.932 976.452 257.853C976.635 257.54 976.798 257.22 976.988 256.911C977.174 256.602 977.372 256.296 977.578 255.997C977.663 255.875 978.172 255.235 978.218 255.152C978.634 254.699 979.072 254.26 979.538 253.854C979.717 253.699 979.899 253.548 980.085 253.397C980.178 253.336 980.442 253.152 980.528 253.106C980.706 253.008 982.053 252.347 981.859 252.379C982.635 252.109 983.454 251.944 984.269 251.814C987.382 251.329 989.4 247.62 988.473 244.955C987.386 241.84 984.405 240.542 981.071 241.06C972.513 242.394 966.435 249.53 964.079 256.868C961.436 265.094 962.185 274.316 961.999 282.805C961.615 300.497 961.23 318.19 960.85 335.879C960.66 344.605 960.473 353.331 960.283 362.061C960.093 370.751 959.519 379.52 959.767 388.206C959.895 392.738 961.137 396.849 964.223 400.403C966.777 403.342 970.285 405.241 974.027 406.593C982.317 409.589 991.376 407.705 999.763 406.144C1017.42 402.86 1036.22 405.14 1054.37 406.129C1073.39 407.165 1092.44 407.661 1111.49 407.759C1149.37 407.953 1187.24 406.557 1225.06 404.655C1243.86 403.709 1262.73 402.95 1281.5 401.547C1289.39 400.957 1298.21 398.993 1301.81 391.652C1303.66 387.886 1303.87 383.764 1303.4 379.696Z" fill="#F2EFE9"/>
<path d="M719.191 207.958C719.33 201.861 720.491 194.851 717.84 189.089C715.069 183.072 708.587 180.888 702.005 180.45C695.209 180 688.261 180.414 681.454 180.45C666.775 180.532 652.096 180.611 637.418 180.694C607.932 180.856 578.443 181.007 548.957 181.194C545.352 181.216 532.152 182.546 530.483 183.262C522.243 186.794 522.239 196.401 521.622 203.624C520.275 219.403 522.79 315.554 522.111 347.814C521.773 364.007 521.463 380.203 521.455 396.4C521.451 404.377 521.521 412.352 521.696 420.326C521.785 424.372 521.587 441.285 523.648 444.763C526.008 448.748 530.549 449.341 534.989 449.474C539.247 449.6 543.504 449.719 547.762 449.831C556.537 450.061 565.313 450.266 574.088 450.438C591.639 450.784 609.197 451 626.752 451.05C644.179 451.1 657.01 451.179 674.433 450.874C683.208 450.719 691.983 450.514 700.755 450.255C704.675 450.14 709.379 450.597 713.113 449.374C718.185 447.708 718.973 443.079 719.21 438.702C719.431 434.684 718.861 375.477 718.624 351.526C718.348 324.125 719.031 214.774 719.191 207.958Z" fill="white"/>
<path d="M1307.66 367.413C1307.47 363.284 1305.21 259.824 1304.84 256.677C1304.12 250.649 1300.39 245.725 1294.37 243.275C1289.17 241.157 1283.46 240.617 1277.82 240.599C1270.29 240.578 1262.76 240.65 1255.24 240.675C1225.16 240.776 1195.07 240.876 1164.99 240.981C1134.78 241.081 1104.57 241.186 1074.36 241.286C1059.38 241.337 1044.4 241.387 1029.43 241.437C1021.81 241.463 1017.22 241.301 1009.6 241.329C1003.33 241.355 984.762 238.93 978.288 244.685C974.95 247.653 975.707 255.666 975.94 259.713C976.437 268.299 974.729 354.946 975.222 363.532C975.463 367.679 975.606 371.844 975.952 375.984C976.266 379.768 977.073 383.832 980.085 386.641C983.582 389.9 988.313 390.058 992.959 390.371C997.554 390.681 1002.15 390.954 1006.75 391.191C1015.82 391.659 1278.77 389.17 1287.98 389.576C1292.19 389.763 1296.56 389.774 1300.36 387.832C1304.05 385.947 1306.47 382.379 1307.28 378.603C1308.08 374.894 1307.84 371.168 1307.66 367.413Z" fill="white"/>
<path d="M355.572 459.042C355.503 447.439 355.421 435.832 355.301 424.229C355.056 400.899 354.517 377.578 353.729 354.259C352.142 307.263 349.855 260.274 349.677 213.245C349.576 186.766 350.197 139.503 348.074 137.442C347.329 135.863 346.304 134.396 344.911 133.086C341.142 129.551 336.108 128.551 331.098 127.533C327.189 126.738 99.549 70.0267 97.8606 70.1275C85.5417 70.8504 23.8966 70.6526 23.1785 70.6814C18.2067 70.8864 13.7589 74.4796 13.8559 79.321C15.1794 145.103 16.1613 210.019 16.5611 275.812C16.957 341.268 16.8599 406.726 16.2778 472.182C15.9479 508.959 15.4666 545.733 14.8262 582.504C14.7408 587.349 19.1964 590.989 24.1993 591.19C49.7803 592.219 75.3613 593.247 100.942 594.276C102.503 594.337 103.95 593.992 105.216 593.352C108.406 592.891 111.433 591.898 114.464 590.726C123.904 587.079 342.64 511.225 347.162 506.844C349.813 504.28 351.338 501.334 352.277 498.19C352.693 497.478 352.999 496.723 353.139 495.935C355.305 483.691 355.642 471.419 355.572 459.042Z" fill="#FFFCF5"/>
<path d="M98.3109 167.922C97.8956 135.683 96.8865 103.434 94.876 71.2425C94.9032 70.9152 94.9303 70.5879 94.9575 70.2606C77.7094 70.8217 24.0984 70.6526 23.4308 70.6778C18.459 70.8828 14.0111 74.476 14.1082 79.3174C15.4317 145.1 16.4136 210.015 16.8095 275.809C17.2054 341.264 17.1083 406.723 16.5262 472.178C16.1963 508.955 15.715 545.729 15.0746 582.5C14.9892 587.345 19.4448 590.985 24.4477 591.186C49.0351 592.175 73.6187 593.164 98.2061 594.15C98.2992 586.827 98.3885 579.5 98.4622 572.177C98.7262 545.952 98.8542 519.728 98.8465 493.5C98.8387 467.401 98.6951 441.303 98.4195 415.208C98.1479 389.113 98.9202 215.465 98.3109 167.922Z" fill="#F2EFE9"/>
<path d="M313.298 457.132C309.817 454.168 304.686 453.356 300.494 455.6C295.336 458.362 290.069 460.945 284.698 463.33C282.237 464.423 279.753 465.473 277.25 466.48C277.137 466.527 276.928 466.613 276.703 466.707C276.128 466.937 275.546 467.149 274.968 467.369C273.473 467.934 271.975 468.484 270.469 469.02C259.462 472.933 248.129 476.059 236.606 478.35C231.498 479.368 226.158 480.569 220.914 481.012C220.538 481.033 219.878 481.073 219.598 481.105C218.861 481.191 218.12 481.271 217.382 481.35C216.148 481.479 214.914 481.602 213.68 481.709C210.939 481.954 208.195 482.155 205.451 482.357C195.023 483.127 184.462 483.853 174.258 486.112C169.123 487.249 164.035 488.871 159.265 491.058C159.595 486.08 159.921 481.105 160.255 476.127C160.577 471.279 155.993 467.135 151.111 466.527C150.393 466.437 149.655 466.426 148.914 466.484C151.293 437.864 153.63 409.244 155.687 380.602C157.08 361.233 158.345 341.857 159.409 322.47C160.464 303.278 161.722 284.006 160.934 264.784C160.131 245.167 156.071 225.946 153.032 206.57C152.881 205.606 152.737 204.638 152.589 203.674C152.589 203.663 152.586 203.66 152.586 203.649C152.504 203.038 152.415 202.426 152.333 201.811C152.007 199.365 151.712 196.919 151.464 194.466C151.006 189.956 150.703 185.431 150.633 180.903C150.56 176.266 150.734 171.626 151.231 167.012C151.285 166.508 151.347 166.005 151.406 165.501C151.394 165.533 151.382 165.559 151.367 165.591C151.382 165.555 151.394 165.515 151.406 165.479C151.417 165.382 151.429 165.285 151.441 165.188C151.476 164.854 151.58 164.598 151.65 164.515C151.771 163.771 151.802 162.962 151.922 162.314C151.992 161.944 152.826 158.48 153.261 157.041C153.304 156.966 153.346 156.894 153.393 156.818C158.388 157.973 164.357 154.29 165.467 149.765C166.837 144.186 163.628 139.751 158.124 137.78C151.584 135.439 143.88 137.96 139.036 142.276C134.786 146.064 132.706 151.506 131.693 156.764C129.756 166.796 129.221 176.968 129.818 187.132C130.439 197.606 133.824 432.979 130.447 473.483C129.613 483.483 128.782 493.482 127.963 503.481C127.595 507.984 127.338 512.236 128.429 516.703C129.826 522.436 133.898 527.044 139.836 529.123C146.55 531.475 152.904 528.501 158.877 525.882C163.523 523.846 297.506 498.24 310.38 483.785C313.5 480.281 312.976 473.167 314.956 469.002C316.799 465.103 317.001 460.283 313.298 457.132ZM153.207 156.437C153.226 156.462 153.304 156.448 153.482 156.372C153.502 156.365 153.513 156.358 153.533 156.351C153.591 156.336 153.645 156.318 153.7 156.304C153.707 156.293 153.719 156.279 153.731 156.268H153.734C153.738 156.264 153.742 156.261 153.742 156.254C153.789 156.2 153.843 156.138 153.913 156.066C153.971 156.005 154.022 155.955 154.064 155.908C153.994 156.027 153.932 156.124 153.874 156.207C154.379 156.002 154.251 156.099 153.932 156.236C154.01 156.214 154.057 156.2 154.053 156.203C153.967 156.239 153.89 156.268 153.812 156.297C153.653 156.505 153.56 156.563 153.579 156.495C153.583 156.487 153.587 156.48 153.591 156.477C153.618 156.433 153.653 156.387 153.684 156.34C153.68 156.34 153.676 156.343 153.672 156.343H153.668C153.447 156.419 153.249 156.469 153.086 156.502C153.013 156.509 152.943 156.509 152.896 156.495C152.916 156.505 153.044 156.48 153.207 156.437Z" fill="#F2EFE9"/>
<path d="M313.155 172.367C307.267 169.961 249.969 156.232 225.766 151.074C213.07 148.369 199.3 144.067 186.604 141.363C180.193 139.996 173.781 138.629 167.369 137.262C161.932 136.104 156.048 134.482 150.486 135.964C149.015 136.356 147.73 136.949 146.585 137.715C145.025 138.323 143.768 139.471 143.185 140.942C142.083 142.355 142.114 144.326 142.883 145.967C143.535 191.344 144.187 236.718 144.843 282.096C145.51 328.524 146.178 374.948 146.845 421.376C147.222 447.46 147.594 473.548 147.971 499.632C148.006 501.999 149.807 504.452 152.388 505.01C159.506 506.538 166.585 505.819 173.692 504.614C180.554 503.449 187.392 502.147 194.231 500.877C207.873 498.345 221.496 495.733 235.104 493.043C248.583 490.374 262.047 487.63 275.492 484.803C282.338 483.364 289.181 481.904 296.015 480.425C301.391 479.263 307.201 478.156 311.746 475.073C315.006 472.861 317.401 470.124 318.74 466.552C319.951 463.326 319.997 459.783 320.063 456.402C320.137 452.417 320.211 448.428 320.288 444.443C320.583 441.968 320.727 439.483 320.797 437.04C321.076 427.307 320.995 417.556 321.076 407.82C321.243 387.99 321.41 368.157 321.577 348.328L322.082 288.121C322.249 268.374 320.859 197.423 320.859 186.323C320.855 177.331 315.907 173.493 313.155 172.367ZM159.933 494.766C159.933 494.636 159.929 494.503 159.929 494.374C160.096 494.51 160.27 494.644 160.445 494.773C160.278 494.769 160.104 494.773 159.933 494.766ZM298.721 468.329C298.771 468.131 298.802 467.933 298.829 467.736C299.221 467.844 299.617 467.93 300.021 467.98C299.59 468.106 299.155 468.218 298.721 468.329Z" fill="white"/>
<path opacity="0.25" d="M426.94 591.801C424.483 588.327 419.508 586.348 415.425 585.057C411.365 583.769 407.029 583.212 402.76 582.942C399.302 582.723 395.821 582.683 392.331 582.748C386.847 582.543 381.348 582.708 375.84 583.086C366.417 583.737 356.88 584.471 347.569 585.992C343.137 586.715 338.744 587.708 334.529 589.19C330.182 590.719 324.752 593.164 324.752 598.222C324.752 603.883 331.575 605.469 336.45 605.671C341.247 605.872 346.091 605.66 350.888 605.502C360.471 605.185 370.034 604.739 379.624 604.919C389.083 605.095 398.557 605.584 408.011 605.052C412.638 604.793 417.687 604.574 422.158 603.383C427.677 601.912 430.165 596.362 426.94 591.801ZM334.172 596.024C333.927 595.963 333.686 595.891 333.446 595.812C333.733 595.772 333.974 595.844 334.172 596.024Z" fill="#C4C1BB"/>
<path opacity="0.25" d="M552.4 565.505C546.559 558.797 536.184 557.326 527.479 556.75C524.296 556.541 521.133 556.581 517.982 556.782C508.356 554.203 498.017 555.577 488.224 556.48C483.229 556.941 478.238 557.469 473.258 558.066C468.492 558.638 463.396 558.901 458.89 560.57C451.314 563.375 438.347 574.27 449.505 580.763C457.637 585.496 468.306 584.086 477.341 583.5C497.838 582.169 518.381 584.046 538.893 583.187C543.691 582.985 548.95 582.572 552.416 579.076C556.425 575.022 555.994 569.634 552.4 565.505Z" fill="#C4C1BB"/>
<path opacity="0.25" d="M981.432 554.973C980.031 550.031 975.175 546.916 970.363 545.017C968.166 544.15 965.822 543.888 963.672 543.125C955.676 540.287 947.6 536.849 939.034 537.827C930.049 538.856 921.778 542.744 912.677 543.068C903.897 543.384 895.064 542.258 886.44 544.334C878.743 546.183 869.001 551.563 868.59 559.843C868.093 569.807 882.194 572.083 890.243 571.993C895.102 571.939 899.888 571.022 904.689 570.429C909.226 569.868 913.806 569.58 918.378 569.479C928.077 569.263 937.586 570.217 947.188 571.31C951.985 571.853 956.674 571.893 961.428 570.993C965.961 570.137 970.456 568.555 974.648 566.756C979.604 564.634 982.903 560.153 981.432 554.973Z" fill="#C4C1BB"/>
<path opacity="0.25" d="M1297.33 640.431C1296.66 635.593 1286.77 629.345 1285.68 628.734C1264.48 616.95 1239.28 621.195 1216.19 624.043C1210.04 624.802 1203.86 625.425 1197.66 625.554C1191.26 625.687 1185.01 624.964 1178.66 624.363C1172.53 623.781 1166.4 623.903 1160.43 625.457C1154.93 626.885 1149.67 629.288 1144.95 632.255C1140.48 635.064 1134.61 638.679 1133.48 643.966C1132.27 649.613 1136.24 654.3 1141.52 656.649C1147.08 659.123 1153.33 660.173 1159.4 660.896C1165.46 661.619 1171.57 661.724 1177.66 661.486C1190.33 660.994 1202.87 659.012 1215.53 658.267C1221.95 657.886 1228.37 657.897 1234.79 658.404C1241.23 658.915 1247.64 659.763 1254.09 660.166C1265.57 660.882 1277.85 659.961 1287.91 654.311C1293.23 651.325 1298.2 646.671 1297.33 640.431Z" fill="#C4C1BB"/>
<path d="M480.276 513.826C479.391 505.229 479.348 496.593 480.155 487.99C480.245 487.037 479.585 486.404 478.758 486.159C478.195 484.796 476.165 484.231 475.203 485.235C474.788 485.101 474.318 485.087 473.875 485.188C472.773 484.238 470.522 484.35 470.262 486.011C470.157 486.673 470.064 487.339 469.967 488.004C468.888 487.59 467.425 488.011 467.01 489.238C466.458 489.177 465.869 489.299 465.399 489.608C464.176 489.126 462.352 489.705 462.236 491.338C461.828 497.039 462.077 502.704 462.864 508.362C462.864 508.373 462.864 508.38 462.861 508.391C462.864 508.391 462.864 508.391 462.868 508.391C462.892 508.567 462.911 508.743 462.938 508.916C463.109 510.081 464.087 510.463 465.061 510.308C465.193 510.603 465.368 510.891 465.593 511.164C466.439 512.189 467.832 512.326 468.733 511.704C469.074 512.204 469.594 512.441 470.146 512.473C470.902 514.336 474.073 514.103 474.275 511.804C474.302 511.488 474.333 511.168 474.361 510.851C474.423 511.222 474.485 511.592 474.555 511.963C474.694 512.7 475.253 513.135 475.921 513.301C475.936 513.473 475.952 513.649 475.967 513.826C476.235 516.358 480.539 516.383 480.276 513.826Z" fill="#F28168"/>
<path d="M476.286 573.436C476.286 573.407 476.286 573.382 476.286 573.353C478.653 561.548 478.96 549.254 480.419 537.324C481.153 531.335 481.875 525.407 481.067 519.39C480.668 516.408 479.988 513.466 479.286 510.535C478.673 507.981 477.054 504.352 478.063 501.798C479.006 499.413 476.588 498.568 475.638 500.942C475.614 501.003 475.595 501.064 475.572 501.129C475.28 501.039 474.962 501.003 474.648 501.017C474.644 500.848 474.64 500.679 474.636 500.507C474.562 498.046 470.549 497.715 470.359 500.068C469.664 499.848 468.845 499.989 468.244 500.442C467.797 498.726 464.821 498.122 464.172 500.201C461.033 510.261 464.887 520.336 466.544 530.292C468.512 542.122 469.75 554.092 471.318 565.976C471.62 568.278 472.055 570.645 472.016 572.99C471.818 573.968 476.262 574.267 476.286 573.436Z" fill="#F28168"/>
<path d="M461.871 574.486C463.641 573.418 465.275 572.414 467.095 571.422C468.395 570.713 469.684 569.943 471.19 569.688C472.61 569.447 476.433 569.576 476.623 569.584C478.475 569.634 478.424 572.752 478.506 574.475C478.653 577.583 475.432 577.105 473.026 577.288C469.373 577.565 465.904 578.137 462.247 578.223C461.297 578.245 459.655 578.309 459.115 577.763C458.801 577.446 457.718 576.989 461.871 574.486Z" fill="#27374D"/>
<path d="M505.697 569.224C505.686 569.199 505.674 569.174 505.662 569.149C502.674 557.466 497.582 546.107 493.705 534.651C491.76 528.9 489.827 523.21 486.462 518.009C484.793 515.433 482.888 512.995 480.966 510.578C479.294 508.473 476.224 505.761 476.03 503.049C475.847 500.514 473.27 500.647 473.437 503.179C473.441 503.244 473.452 503.308 473.456 503.373C473.15 503.398 472.847 503.485 472.564 503.618C472.486 503.463 472.408 503.308 472.331 503.157C471.19 500.938 467.374 502.139 468.228 504.362C467.495 504.423 466.812 504.859 466.458 505.495C465.302 504.093 462.313 504.657 462.632 506.801C464.157 517.178 472.082 524.943 477.947 533.425C484.917 543.503 491.275 553.988 497.9 564.264C499.185 566.257 500.617 568.257 501.599 570.415C501.847 571.386 506.039 569.994 505.697 569.224Z" fill="#F28168"/>
<path d="M493.045 575.821C494.135 574.144 495.133 572.58 496.305 570.95C497.139 569.789 497.939 568.573 499.173 567.738C500.338 566.951 503.838 565.523 504.013 565.451C505.701 564.749 507.122 567.573 508.007 569.091C509.602 571.828 506.478 572.698 504.397 573.835C501.242 575.558 498.385 577.475 495.137 579.029C494.291 579.432 492.843 580.155 492.102 579.881C491.679 579.727 490.487 579.752 493.045 575.821Z" fill="#27374D"/>
<path d="M362.419 592.679C363.292 585.748 368.035 553.081 368.769 553.495C369.735 554.034 370.667 555.664 371.68 555.977C372.262 555.657 373.178 555.797 373.403 556.459C373.74 556.545 374.078 556.631 374.42 556.721C374.427 556.725 374.435 556.725 374.443 556.728C374.955 556.149 376.038 556.401 376.415 557.056C376.547 557.286 376.655 557.523 376.748 557.761C377.09 558.02 377.393 558.325 377.645 558.703C377.695 558.779 377.734 558.854 377.765 558.93C378.103 559.12 378.324 559.466 378.227 559.944C377.703 562.566 373.806 576.788 372.762 579.216C371.256 583.64 369.673 588.086 367.771 592.348C367.053 593.963 365.671 595.635 363.552 595.384C361.383 595.121 362.194 594.448 362.419 592.679Z" fill="#C67F60"/>
<path d="M352.852 593.247C354.711 592.323 356.434 591.445 358.336 590.6C359.694 589.996 361.049 589.327 362.57 589.194C364.006 589.064 367.802 589.492 367.996 589.514C369.836 589.708 369.502 592.808 369.428 594.535C369.296 597.642 366.129 596.916 363.711 596.912C360.047 596.901 356.535 597.204 352.887 597.002C351.94 596.952 350.294 596.887 349.809 596.301C349.526 595.959 348.489 595.42 352.852 593.247Z" fill="#27374D"/>
<path d="M409.467 593.736C408.194 586.859 402.795 554.283 403.626 554.484C404.716 554.75 406.106 556.067 407.173 556.103C407.635 555.642 408.555 555.538 408.97 556.113C409.319 556.11 409.669 556.103 410.026 556.099C410.034 556.099 410.041 556.099 410.049 556.099C410.363 555.412 411.481 555.369 412.04 555.898C412.238 556.085 412.413 556.283 412.576 556.488C412.979 556.646 413.368 556.862 413.725 557.157C413.794 557.214 413.857 557.279 413.907 557.34C414.287 557.437 414.606 557.707 414.66 558.192C414.959 560.843 415.549 575.508 415.285 578.112C415.188 582.748 415.021 587.431 414.497 592.013C414.299 593.751 413.484 595.715 411.373 596.028C409.215 596.351 409.793 595.495 409.467 593.736Z" fill="#C67F60"/>
<path d="M399.244 593.952C401.068 592.967 402.752 592.035 404.623 591.125C405.958 590.474 407.286 589.766 408.803 589.578C410.235 589.402 414.043 589.704 414.237 589.719C416.084 589.852 415.871 592.963 415.863 594.69C415.848 597.801 412.657 597.179 410.243 597.254C406.583 597.366 403.082 597.783 399.43 597.704C398.479 597.682 396.834 597.675 396.325 597.103C396.026 596.772 394.967 596.265 399.244 593.952Z" fill="#27374D"/>
<path d="M415.653 464.29C414.543 455.769 413.01 447.295 410.953 438.95C410.216 435.965 406.886 436.174 405.574 438.105C405.512 437.602 405.454 437.098 405.388 436.594C404.937 433.113 400.121 432.08 399.352 435.868C399.151 436.868 398.98 437.868 398.832 438.871C398.681 438.875 398.53 438.878 398.382 438.882C398.18 438.091 397.971 437.299 397.749 436.508C397.082 434.141 393.899 433.555 392.506 435.13C392.114 435.393 391.757 435.778 391.462 436.307C391.268 436.242 391.066 436.195 390.845 436.174C390.422 436.13 390.003 436.181 389.611 436.307C389.351 433.469 385.031 432.156 383.715 434.929C383.451 434.688 383.133 434.487 382.749 434.343C381.289 433.789 379.582 434.328 378.813 435.778C378.588 436.202 378.382 436.634 378.184 437.066C377.625 437.256 377.105 437.573 376.636 438.073C376.807 436.407 376.034 434.764 374.319 434.332C372.789 433.947 370.752 434.954 370.503 436.684C369.358 444.651 364.127 453.395 363.001 463.639C359.213 498.147 359.791 542.46 357.68 569.497C357.486 571.983 357.296 574.468 357.113 576.954C356.946 579.212 356.516 581.694 358.192 583.511C359.741 585.183 361.91 585.194 364.006 585.331C366.51 585.496 369.009 585.658 371.513 585.823C372.995 585.921 374.074 584.629 374.517 583.356C380.036 567.411 386.444 539.759 391.78 513.247C394.458 534.799 397.346 555.79 400.393 571.343C400.87 573.785 401.355 576.227 401.844 578.669C402.287 580.885 402.547 583.392 404.569 584.701C406.436 585.91 408.434 585.352 410.398 584.939C412.743 584.446 415.087 583.949 417.431 583.457C418.82 583.165 419.473 581.637 419.538 580.299C421.087 550.315 419.566 494.306 415.653 464.29Z" fill="#B38740"/>
<path d="M384.674 340.063C385.213 339.135 385.741 338.25 386.222 337.343C387.026 330.743 388.644 324.359 395.987 322.222C400.288 320.971 409.331 320.079 412.599 323.139C415.677 326.024 417.357 330.121 417.788 334.113C418.483 340.523 415.917 347.713 410.883 352.36C410.418 353.856 410.103 355.396 409.855 356.928C409.195 361.014 410.033 367.431 410.033 371.553C410.033 372.894 408.489 371.848 407.161 372.337C406.851 373.923 404.941 374.84 403.272 374.686C403.001 374.873 402.714 375.024 402.419 375.128C396.515 377.16 395.735 378.711 395.398 375.52L395.646 358.604C392.809 357.507 390.333 357.572 388.466 355.209C386.494 352.716 385.784 348.864 385.683 345.318C384.748 345.105 383.804 344.72 383.405 343.857C382.741 342.451 383.995 341.228 384.674 340.063Z" fill="#C67F60"/>
<path d="M423.23 331.218C422.275 328.455 420.862 326.779 418.432 325.118C417.02 324.15 415.502 323.398 414.016 322.546C412.638 321.758 412.347 320.395 411.19 319.359C409.04 317.431 406.199 317.277 403.513 318.161C403.102 318.298 402.003 318.827 401.518 318.568C401.045 318.316 401.196 317.273 401.049 316.849C400.653 315.712 399.57 314.845 398.347 314.514C395.762 313.813 392.261 315.115 390.748 317.104C390.332 317.647 390.061 318.464 389.548 318.924C388.893 319.514 387.837 319.539 387.064 319.978C385.877 320.654 385.167 321.852 384.872 323.089C384.247 325.704 385.302 328.495 387.297 330.376C389.285 332.47 390.061 333.66 390.573 335.167C390.919 336.182 391.163 337.221 391.838 338.106C392.549 339.037 393.566 339.552 394.753 339.775C396.476 340.098 397.866 339.742 398.731 341.483C399.446 342.922 399.403 344.58 399.768 346.105C400.067 347.35 400.587 348.551 401.301 349.644C402.826 351.979 405.073 353.766 407.383 355.41C408.186 355.982 409.137 355.594 409.665 354.928C412.273 352.666 414.633 350.191 416.977 347.699C419.131 345.407 421.328 343.059 422.838 340.343C424.316 337.674 424.254 334.185 423.23 331.218Z" fill="#27374D"/>
<path d="M419.671 396.738C418.727 379.628 410.678 367.14 410.639 367.017C409.479 363.403 404.107 362.91 399.993 365.161C391.92 369.582 386.638 375.84 383.187 382.89C380.16 389.08 373.849 418.844 371.466 430.908C368.187 436.368 365.182 441.954 363.098 447.925C361.449 452.647 359.966 458.873 365.113 462.208C365.753 462.621 366.622 462.513 367.274 462.208C371.474 460.226 375.363 457.809 378.965 455.064C385.702 455.406 393.562 455.154 396.003 455.158C400.272 455.169 410.604 455.147 414.249 452.669C426.428 444.385 420.361 409.241 419.671 396.738Z" fill="#FFFCF5"/>
<path d="M490.312 492.698C489.82 491.37 488.935 490.273 488.069 489.162C488.069 483.572 488.069 477.983 488.069 472.394C488.069 471.739 487.786 471.253 487.367 470.937C487.347 468.808 487.227 466.678 487.006 464.552C487.541 459.772 487.363 454.924 486.431 450.19C486.167 448.859 485.764 447.399 485.147 446.061C486.936 443.968 485.531 440.867 483 439.353C482.682 439.162 482.356 438.993 482.022 438.832C483.672 437.738 483.974 435.069 481.502 434.465C477.784 433.559 473.976 432.958 470.134 432.778C467.076 432.634 462.018 431.929 460.582 435.224C459.923 436.735 459.849 438.558 459.484 440.148C459.076 441.936 458.618 443.709 458.122 445.475C457.105 449.086 455.905 452.647 455.207 456.33C453.817 463.628 453.429 471.153 452.649 478.523L451.461 489.741C451.302 491.245 450.965 492.834 451.423 494.313C451.935 495.964 453.422 496.938 454.993 497.69C462.62 501.334 486.769 499.841 488.488 498.801C490.673 497.474 491.116 494.863 490.312 492.698ZM486.435 495.018C486.35 495.277 486.136 495.467 485.841 495.611C485.876 495.273 485.845 494.928 485.756 494.604C486.004 494.629 486.253 494.615 486.493 494.568C486.493 494.723 486.482 494.874 486.435 495.018Z" fill="#627A94"/>
<path d="M474.481 433.501C473.969 428.552 472.529 423.869 470.115 419.427C469.87 418.981 469.501 418.704 469.082 418.563C469.028 418.114 468.97 417.664 468.904 417.215C468.698 415.841 467.328 415.571 466.195 415.97C466.738 414.521 467.281 413.071 467.794 411.622C468.648 409.201 464.561 408.179 463.691 410.575C462.457 413.97 461.246 417.376 460.023 420.775C459.057 423.466 457.691 426.387 457.807 429.271C457.912 431.89 459.484 433.875 462.255 434.523C465.457 435.267 469.051 435.21 472.331 435.494C473.414 435.587 474.582 434.501 474.481 433.501Z" fill="white"/>
<path d="M463.361 359.895C464.972 362.413 469.404 363.424 472.257 363.874L472.172 364.593C476.907 363.399 479.756 363.924 484.576 363.179C484.96 361.798 480.784 358.086 481.355 356.755C486.854 352.583 494.784 347.99 494.768 341.548C494.756 337.538 492.905 334.322 490.142 331.175C487.211 327.833 478.323 327.564 473.91 328.42C466.381 329.883 464.502 335.415 463.012 341.915C462.441 342.771 461.824 343.605 461.188 344.479C460.388 345.58 459.014 346.681 459.519 348.141C459.825 349.037 460.726 349.501 461.634 349.799C461.362 353.338 461.665 357.237 463.361 359.895Z" fill="#F28168"/>
<path d="M491.772 369.852C490.553 366.097 487.46 360.946 485.694 357.381C485.426 356.838 484.964 356.547 484.444 356.446C483.939 355.971 483.237 355.791 482.573 355.853C481.479 354.399 478.777 354.964 478.548 356.518C478.513 356.529 478.479 356.543 478.447 356.558C477.186 356.119 475.591 356.698 475.474 357.921C475.09 358 474.741 358.158 474.465 358.388C473.522 358.299 472.544 358.838 472.121 359.802C471.818 360.489 471.776 361.162 471.9 361.813C471.861 362.165 471.931 362.543 472.144 362.931C473.146 364.733 476.926 372.377 478.599 374.078C479.414 374.909 491.845 370.078 491.772 369.852Z" fill="#F28168"/>
<path d="M502.55 323.377C501.894 320.711 498.894 320.467 496.646 321.607C493.565 323.172 491.337 326.006 490.324 329.146C486.963 327.718 482.709 326.909 479.107 326.966C470.941 327.096 467.673 330.304 467.239 331.081C466.474 332.444 466.338 333.905 466.773 335.387C467.246 336.998 468.457 338.296 469.001 339.872C469.47 341.235 469.451 342.609 470.344 343.843C471.252 345.094 473.445 345.224 473.934 346.735C474.372 348.076 474.419 350.551 473.161 351.72C471.985 352.813 475.568 354.094 476.647 355.252C478.529 357.273 481.696 360.442 484.863 360.046C487.898 359.669 490.541 356.241 492.319 354.202C494.601 351.58 496.456 348.663 497.427 345.397C498.327 342.368 498.242 339.045 497.108 336.12C498.948 334.631 500.415 332.703 501.343 330.621C502.294 328.499 503.116 325.679 502.55 323.377Z" fill="#574443"/>
<path d="M524.917 533.543C522.682 530.806 520.295 528.148 518.502 525.13C516.821 522.303 515.862 519.131 515.42 515.937C514.492 509.232 515.416 502.42 515.428 495.694C515.439 488.9 514.201 482.289 512.012 475.814C509.85 469.415 507.013 463.24 504.607 456.92C502.154 450.478 500.252 443.918 499.914 437.062C499.546 429.584 500.504 422.128 501.25 414.697C502.084 406.37 502.313 398.141 501.292 389.818C500.244 381.25 498.37 372.797 496.398 364.377C495.556 360.78 489.951 361.992 489.982 365.316C489.059 365.769 488.372 366.632 488.356 367.906C488.348 368.65 488.341 369.391 488.333 370.136C488.119 370.031 487.89 369.959 487.65 369.913C486.94 368.233 484.494 367.668 482.872 368.506C482.674 368.384 482.465 368.28 482.251 368.193C481.944 365.956 478.871 364.165 476.72 366.28C469.723 373.157 465.081 382.066 463.598 391.415C461.564 394.774 459.259 398.008 456.946 401.212C454.566 404.511 452.164 407.798 450.01 411.23C447.906 414.582 445.721 419.045 449.11 422.39C454.652 427.858 462.927 423.606 467.526 419.071C467.929 420.24 468.341 421.409 468.752 422.574C471.256 429.627 473.72 436.699 475.688 443.896C477.625 450.978 478.964 458.129 479.585 465.416C480.194 472.559 480.384 479.731 481.261 486.853C482.135 493.96 483.699 500.866 486.687 507.484C489.532 513.79 493.219 519.829 494.974 526.512C496.93 533.946 496.464 541.841 499.969 548.916C502.988 555.013 508.93 560.566 516.437 560.282C529.757 559.775 533.359 555.268 533.293 551.682C533.176 544.866 529.217 538.809 524.917 533.543Z" fill="#F07556"/>
<path d="M502.189 363.704C500.896 358.737 502.507 353.497 500.384 348.659C499.449 346.53 498.059 344.634 497.5 342.372C497 340.329 496.876 338.207 496.076 336.232C495.141 333.919 493.468 331.754 490.829 330.959C487.922 330.085 485.279 331.653 484.289 334.185C483.998 334.926 483.757 335.692 483.544 336.473C482.663 336.002 481.556 335.998 480.621 336.419C480.245 336.25 479.818 336.153 479.336 336.153C478.087 336.153 476.515 337.041 476.325 338.278C476.29 338.516 476.255 338.753 476.22 338.987C473.868 336.919 469.459 339.584 471.411 342.49C472.676 344.375 474.244 346.551 474.341 348.846C474.427 350.928 472.579 352.36 471.403 353.95C470.115 355.691 469.474 357.687 469.905 359.791C470.231 361.395 471.95 363.122 471.357 364.751C470.724 366.488 469.381 367.852 469.036 369.722C468.613 372.006 469.497 374.186 471.426 375.664C473.161 376.991 475.416 377.592 477.648 377.455C480.419 377.286 482.756 376.07 485.348 375.311C486.489 374.977 487.658 374.689 488.83 375.052C489.816 375.358 490.701 375.98 491.679 376.333C493.945 377.142 496.518 376.962 498.657 375.89C503.776 373.33 503.365 368.229 502.189 363.704Z" fill="#574443"/>
<path d="M908.935 399.885C908.415 399.461 907.658 399.27 906.975 399.396C907.025 399.191 907.08 398.989 907.13 398.784C907.759 396.317 903.676 395.407 903.004 397.86C901.677 402.691 900.423 407.571 899.791 412.528C899.473 415.017 898.06 421.074 902.686 422.804C905.36 423.804 909.855 424.847 910.487 423.203C911.368 420.909 907.906 414.305 908.543 411.938C909.152 409.679 909.649 407.395 910.029 405.097C910.34 403.223 910.631 401.27 908.935 399.885Z" fill="#7D483E"/>
<path d="M973.258 450.385C973.39 449.514 973.417 448.626 973.32 447.709C973.301 447.536 971.997 443.601 971.403 442.227C971.414 442.004 964.758 414.107 964.719 413.769C963.741 405.424 961.731 397.069 959.592 388.911C959.239 387.559 959.674 388.221 958.591 388.609C958.021 387.246 957.07 386.174 955.288 386.091C951.132 385.897 952.009 390.749 952.37 393.13C953.452 400.238 954.683 407.712 957.345 414.481C957.411 414.646 957.477 414.819 957.547 414.999C957.803 416.815 957.904 418.671 958.222 420.448C958.94 424.437 960.605 428.246 962.022 432.055C963.26 435.382 966.124 440.788 968.764 442.903C968.826 443.191 968.868 443.486 968.884 443.784C968.931 444.691 968.756 445.561 968.919 446.468C969.156 447.795 969.897 448.949 970.739 450.029C970.758 451.054 970.654 452.082 970.351 453.118C970.064 454.093 971.682 454.701 972.156 453.762C972.676 452.73 973.029 451.683 973.215 450.608C973.231 450.546 973.242 450.482 973.25 450.41C973.258 450.403 973.258 450.392 973.258 450.385Z" fill="#7D483E"/>
<path d="M917.283 515.073C916.41 514.138 915.323 517.483 914.73 518.58C914.45 519.098 914.206 519.634 913.992 520.181C913.996 520.138 913.996 520.091 914 520.048C914.167 517.512 909.94 517.534 909.75 520.048C909.222 527.126 909.141 534.23 909.164 541.327C909.172 544.542 908.951 547.859 909.312 551.056C909.556 553.229 910.15 556.732 913.239 554.97C914.423 554.293 914.722 553.067 914.924 551.898C915.246 550.056 915.502 548.2 915.781 546.355C916.263 543.176 916.717 539.989 917.105 536.798C917.524 533.324 917.866 529.838 918.063 526.346C918.211 523.641 919.348 517.278 917.283 515.073Z" fill="#7D483E"/>
<path d="M915.145 554.801C914.827 552.621 914.524 552.812 912.537 552.657C912.257 552.636 910.515 552.618 910.286 552.654C908.9 552.88 908.454 554.815 908.353 555.696C908.194 557.128 907.588 559.898 909.203 560.782C909.921 561.174 910.814 561.07 911.617 561.066C912.521 561.063 913.523 561.174 914.276 560.61C915.095 559.991 915.087 558.786 915.168 557.883C915.261 556.865 915.292 555.812 915.145 554.801Z" fill="#27374D"/>
<path d="M936.79 557.567C937.862 550.657 942.298 517.958 941.471 518.181C940.388 518.476 939.038 519.829 937.97 519.89C937.497 519.44 936.573 519.361 936.173 519.947C935.824 519.951 935.475 519.955 935.118 519.962C935.11 519.962 935.102 519.962 935.094 519.962C934.757 519.282 933.643 519.268 933.099 519.811C932.909 520.001 932.739 520.203 932.579 520.415C932.18 520.584 931.799 520.807 931.45 521.113C931.38 521.174 931.322 521.235 931.271 521.303C930.895 521.408 930.584 521.688 930.546 522.174C930.328 524.832 930.169 539.503 930.507 542.1C930.744 546.733 931.046 551.409 931.702 555.977C931.951 557.707 932.824 559.653 934.943 559.912C937.12 560.174 936.519 559.333 936.79 557.567Z" fill="#7D483E"/>
<path d="M947.056 557.693C945.232 556.711 943.544 555.783 941.669 554.876C940.334 554.229 939.003 553.52 937.485 553.34C936.053 553.168 932.246 553.477 932.051 553.491C930.208 553.632 930.429 556.739 930.441 558.466C930.464 561.577 933.654 560.948 936.069 561.016C939.728 561.12 943.229 561.527 946.885 561.44C947.836 561.419 949.482 561.404 949.986 560.833C950.281 560.505 951.341 559.998 947.056 557.693Z" fill="#27374D"/>
<path d="M953.577 408.704C953.585 408.651 964.724 406.751 965.62 405.888C967.111 404.453 966.614 401.91 966.078 400.223C964.848 396.328 963.493 392.454 962.096 388.595C961.009 382.063 958.665 375.743 955.172 369.92C952.789 365.996 939.092 364.039 937.617 362.395C936.736 361.413 926.595 361.935 924.833 363.312C923.835 363.535 911.862 365.812 907.938 371.639C904.588 376.61 903.835 379.7 901.809 385.239C900.796 388.012 899.973 390.843 899.306 393.702C898.677 396.385 897.649 399.572 897.889 402.331C898.138 405.158 900.886 406.546 903.478 407.374C905.054 407.874 906.688 408.205 908.341 408.388C908.392 408.633 908.442 408.877 908.493 409.122C908.202 417.963 904.949 426.703 902.422 435.148C899.108 446.227 895.793 457.305 892.483 468.38C890.825 473.919 889.168 479.458 887.511 484.997C886.032 489.939 884.468 494.895 883.781 499.996C882.555 509.049 884.216 522.077 895.281 525.325C900.769 526.936 923.854 525.303 926.404 526.145C931.92 527.965 937.381 527.846 943.07 527.044C944.514 526.839 946.039 526.598 947.507 526.717C948.791 526.821 950.006 527.256 951.24 527.569C954.058 528.281 956.864 528.249 959.666 527.497C962.205 526.817 964.949 525.677 967.161 524.328C969.633 522.821 970.503 520.559 970.398 517.912C970.181 512.394 968.958 506.855 967.503 501.514C964.603 490.853 954.792 429.066 953.577 408.704Z" fill="#F7D5D9"/>
<path d="M948.166 345.249C947.887 343.487 947.58 341.124 946.063 339.861C944.242 338.347 942.166 339.394 940.823 340.868C939.344 342.487 938.296 344.357 937.365 346.281C936.911 347.217 936.464 348.163 936.069 349.13C933.961 349.896 931.927 351.331 930.949 353.151C930.918 352.997 930.887 352.846 930.868 352.695C930.546 350.191 926.292 350.285 926.606 352.821C927.119 356.982 929.956 360.892 934.473 362.064C939.01 363.241 943.109 360.521 945.527 357.151C947.995 353.702 948.81 349.306 948.166 345.249Z" fill="#7D483E"/>
<path d="M953.895 370.995C951.834 369.283 949.14 368.218 946.625 367.219C943.835 366.111 940.823 365.096 938.459 363.276C937.07 362.205 936.053 360.892 935.25 359.46C940.963 358.514 946.42 354.015 947.945 349.159C950.107 342.264 947.642 334.473 941.044 330.463C933.585 325.931 923.435 328.776 920.117 336.437C919.69 337.426 919.375 338.437 919.166 339.462C918.859 340.278 918.646 341.106 918.537 341.926C918.079 345.389 919.29 349.382 921.549 352.705C922.624 354.658 923.979 356.471 925.523 358.057C925.609 359.313 925.69 360.564 925.779 361.82C926.001 364.927 926.439 367.913 927.848 370.769C930.565 376.272 935.622 380.235 940.908 383.588C943.749 385.39 946.241 385.706 949.152 383.804C951.446 382.304 953.371 380.311 954.667 377.998C956.065 375.516 956.305 372.999 953.895 370.995Z" fill="#2C294C"/>
<path d="M578.439 181.255C568.565 181.313 558.695 181.367 548.822 181.428C545.216 181.449 532.016 182.78 530.347 183.496C522.107 187.028 522.103 196.635 521.486 203.858C520.586 214.382 521.405 260.655 521.851 299.882C525.651 302.968 529.85 305.558 534.434 307.389C548.461 312.996 564.102 312.716 578.722 309.281C593.393 305.835 607.172 298.94 616.265 287.502C621.229 281.258 624.156 273.712 624.816 266C625.153 262.069 624.971 257.346 623.05 253.771C622.91 253.508 622.751 253.26 622.584 253.019C621.396 248.437 618.52 244.297 614.251 241.711C612.403 240.592 610.308 239.873 608.134 239.563C605.763 237.912 603.03 236.61 600.267 235.679C597.507 230.366 594.088 225.244 590.983 220.216C588.864 216.785 586.962 213.256 585.227 209.645C585.161 209.508 585.107 209.397 585.064 209.307C584.82 208.767 584.583 208.228 584.35 207.685C583.966 206.789 583.597 205.886 583.236 204.98C582.479 203.066 581.781 201.135 581.14 199.185C579.859 195.286 578.812 191.323 578.008 187.319C577.888 186.73 577.787 186.14 577.678 185.546C578.004 184.449 578.222 183.287 578.365 182.043C578.4 181.78 578.423 181.518 578.439 181.255Z" fill="#B38740"/>
<path d="M689.973 363.546C679.304 359.115 670.097 352.684 660.212 346.976C648.984 340.494 636.129 335.649 622.658 336.419C608.584 337.221 595.047 342.577 585.324 352.177C576.824 360.568 571.659 370.974 567.669 381.746C563.912 391.893 561.272 402.374 556.941 412.334C553.918 418.657 550.273 424.714 545.849 430.289C542.697 433.904 539.212 437.238 535.338 440.184C532.043 442.389 528.542 444.27 524.84 445.831C524.603 445.921 524.374 446.011 524.145 446.105C526.648 448.986 530.661 449.471 534.597 449.59C538.855 449.716 543.112 449.834 547.37 449.946C556.145 450.176 564.921 450.381 573.696 450.554C591.247 450.899 608.806 451.115 626.36 451.165C643.787 451.216 656.618 451.295 674.041 450.989C682.816 450.834 691.592 450.629 700.363 450.37C704.283 450.255 708.987 450.712 712.721 449.489C717.794 447.824 718.581 443.195 718.818 438.817C718.993 435.613 718.667 397.292 718.407 369.762C716.54 369.654 714.677 369.503 712.818 369.305C704.989 368.19 697.336 366.258 689.973 363.546Z" fill="#27374D"/>
<path d="M598.718 213.335C598.703 212.99 598.703 213.091 598.718 213.335V213.335ZM718.62 351.763C718.547 344.336 718.543 330.887 718.578 315.09C714.072 314.191 709.453 313.68 704.803 313.259C702.696 313.068 700.588 312.896 698.485 312.691C697.708 312.615 696.936 312.529 696.164 312.446C695.574 312.356 694.98 312.281 694.39 312.191C692.476 311.892 690.575 311.536 688.696 311.079C686.872 310.637 684.714 310.216 683.045 309.364C683.414 309.533 684.594 310.026 683.356 309.45C683.002 309.285 682.642 309.13 682.288 308.961C681.407 308.54 680.55 308.083 679.719 307.583C679.389 307.385 679.071 307.177 678.745 306.972C677.953 306.296 677.146 305.659 676.408 304.925C676.137 304.655 675.88 304.375 675.617 304.102C674.569 303.019 675.721 304.332 675.845 304.414C675.182 303.976 674.635 302.799 674.204 302.141C673.746 301.436 673.319 300.713 672.923 299.976C672.702 299.566 672.5 299.145 672.283 298.731C672.271 298.713 672.263 298.699 672.255 298.681C672.244 298.649 672.228 298.616 672.213 298.577C669.527 291.908 668.386 284.909 666.453 278.05C664.338 270.55 661.05 263.08 655.186 257.404C648.491 250.922 639.16 248.764 630.338 245.894C628.417 245.268 626.527 244.592 624.633 243.905C624.486 243.851 624.373 243.822 624.288 243.804C624.066 243.704 623.849 243.592 623.725 243.538C622.657 243.096 621.598 242.632 620.55 242.142C618.753 241.304 616.995 240.398 615.295 239.402C614.585 238.984 613.882 238.553 613.191 238.103C613.075 238.028 612.772 237.841 612.512 237.686C612.139 237.416 611.782 237.111 611.433 236.83C610.009 235.697 608.666 234.474 607.428 233.165C607.16 232.884 606.908 232.589 606.64 232.309C606.624 232.291 606.609 232.276 606.593 232.258C605.984 231.449 605.363 230.651 604.796 229.809C603.834 228.381 602.972 226.896 602.2 225.37C602.118 225.205 601.978 224.978 601.866 224.752C601.831 224.633 601.792 224.511 601.749 224.41C601.346 223.443 600.977 222.464 600.639 221.475C599.995 219.576 599.475 217.641 599.068 215.684C598.97 215.217 598.877 214.749 598.792 214.281C598.753 214.062 598.726 213.616 598.71 213.346C598.714 213.505 598.726 213.753 598.734 214.123C598.707 213.181 598.497 212.224 598.415 211.282C598.016 206.681 598.202 202.052 598.761 197.47C598.811 197.063 598.854 196.65 598.92 196.243C598.978 195.916 599.04 195.563 599.056 195.484C599.265 194.236 599.502 192.992 599.758 191.751C600.247 189.377 600.814 187.017 601.431 184.669C601.742 183.485 602.064 182.306 602.398 181.129C592.566 181.183 582.735 181.241 572.908 181.298C572.349 183.604 571.86 185.931 571.453 188.28C569.667 198.599 568.763 209.167 570.048 219.587C571.263 229.435 573.82 239.146 579.269 247.782C584.513 256.091 592.287 262.77 601.641 266.943C610.245 270.78 619.467 273.118 628.324 276.359C628.763 276.543 629.205 276.722 629.64 276.913C630.598 277.33 631.545 277.766 632.477 278.23C633.401 278.69 634.305 279.175 635.194 279.693C635.636 279.952 636.071 280.215 636.502 280.488C636.641 280.578 636.812 280.708 636.979 280.841C636.87 280.74 636.75 280.629 636.614 280.503C636.777 280.654 636.94 280.798 637.103 280.945C637.065 280.913 637.022 280.877 636.979 280.844C637.926 281.715 637.767 281.528 637.348 281.157C638.489 282.136 639.684 283.038 640.724 284.136C640.903 284.51 641.501 285.074 641.699 285.355C642.455 286.423 643.139 287.535 643.752 288.678C643.985 289.11 644.198 289.545 644.419 289.98C644.423 289.995 644.427 290.006 644.435 290.02C644.839 291.063 645.262 292.095 645.63 293.149C646.407 295.372 647.063 297.627 647.691 299.89C648.933 304.339 650.082 308.831 651.848 313.133C654.076 318.554 656.913 323.258 660.845 327.762C664.408 331.844 668.789 335.239 673.451 338.203C684.182 345.03 697.134 348.49 709.833 350.497C712.717 350.954 715.651 351.4 718.609 351.785C718.62 351.774 718.62 351.77 718.62 351.763Z" fill="#27374D"/>
<path d="M717.999 188.938C715.228 182.92 708.746 180.737 702.164 180.298C695.368 179.849 688.421 180.262 681.613 180.298C666.934 180.378 652.256 180.46 637.577 180.543C633.366 180.565 629.155 180.59 624.944 180.611C623.461 185.492 622.56 190.506 622.533 195.639C622.467 207.383 627.16 220.061 637.325 227.557C642.723 231.539 648.813 234.524 655.609 235.898C662.599 237.308 669.294 237.269 676.319 236.24C688.133 234.513 700.021 228.298 707.617 219.716C713.672 212.871 717.914 204.778 719.656 196.157C719.49 193.646 719.039 191.193 717.999 188.938Z" fill="#B38740"/>
<path d="M320.855 186.323C320.855 177.331 315.907 173.49 313.155 172.367C307.267 169.961 249.969 156.232 225.766 151.074C222.552 150.391 219.272 149.603 215.958 148.765C211.673 154.405 208.227 160.645 205.49 167.174C199.261 182.029 197.879 198.326 198.085 214.127C198.318 232.042 200.262 249.926 198.24 267.813C196.296 285.006 192.446 302.497 197.798 319.543C200.569 328.376 206.045 338.016 215.345 342.3C221.151 344.972 227.935 346.091 234.227 344.113C239.47 342.465 244.077 339.573 247.737 335.718C253.943 329.175 258.958 321.456 263.968 314.111C268.758 307.083 273.326 299.929 277.681 292.663C295.239 263.367 309.421 232.309 321.018 200.588C320.917 193.815 320.855 188.701 320.855 186.323Z" fill="#627A94"/>
<path d="M184.016 256.08C181.555 255.81 178.287 257.209 177.895 259.785C177.328 263.482 176.296 266.155 174.157 269.183C172.5 271.532 173.649 274.924 176.168 276.287C178.916 277.776 182.149 276.762 183.833 274.424C186.732 270.403 188.246 265.925 188.855 261.159C189.174 258.645 186.484 256.353 184.016 256.08Z" fill="#27374D"/>
<path d="M159.564 328.376C157.103 328.107 153.835 329.506 153.443 332.081C152.877 335.779 151.844 338.451 149.706 341.48C148.048 343.828 149.197 347.22 151.716 348.583C154.464 350.072 157.697 349.058 159.382 346.72C162.281 342.699 163.795 338.221 164.404 333.455C164.722 330.941 162.032 328.65 159.564 328.376Z" fill="#27374D"/>
<path d="M184.776 283.891C181.955 283.172 178.59 284.772 177.911 287.506C176.533 293.03 174.258 297.634 170.754 302.328C169.034 304.63 170.296 308.083 172.76 309.421C175.574 310.946 178.648 309.842 180.414 307.562C184.392 302.422 187.194 296.426 188.681 290.257C189.333 287.531 187.784 284.657 184.776 283.891Z" fill="#27374D"/>
<path d="M203.794 334.606C200.973 333.887 197.608 335.487 196.928 338.221C195.551 343.746 193.276 348.35 189.771 353.044C188.052 355.346 189.313 358.799 191.778 360.137C194.592 361.662 197.666 360.557 199.432 358.277C203.41 353.137 206.212 347.141 207.699 340.973C208.351 338.246 206.802 335.372 203.794 334.606Z" fill="#27374D"/>
<path d="M217.378 353.31C214.557 352.59 211.192 354.191 210.513 356.925C209.135 362.449 206.86 367.053 203.356 371.747C201.636 374.049 202.898 377.502 205.362 378.84C208.176 380.365 211.25 379.261 213.016 376.98C216.994 371.841 219.796 365.845 221.283 359.676C221.935 356.95 220.386 354.076 217.378 353.31Z" fill="#27374D"/>
<path d="M194.479 418.053C191.658 417.333 188.293 418.934 187.613 421.667C186.236 427.192 183.961 431.796 180.457 436.49C178.737 438.792 179.999 442.245 182.463 443.583C185.277 445.108 188.351 444.004 190.117 441.723C194.095 436.583 196.897 430.588 198.384 424.419C199.036 421.693 197.487 418.819 194.479 418.053Z" fill="#27374D"/>
<path d="M175.85 454.381C173.028 453.661 169.663 455.262 168.984 457.996C167.606 463.52 165.332 468.124 161.827 472.818C160.107 475.12 161.369 478.573 163.833 479.911C166.647 481.436 169.721 480.332 171.487 478.051C175.465 472.912 178.268 466.916 179.754 460.747C180.406 458.021 178.857 455.147 175.85 454.381Z" fill="#27374D"/>
<path d="M218.155 385.681C215.333 384.962 211.968 386.562 211.289 389.296C209.911 394.821 207.637 399.425 204.132 404.119C202.412 406.421 203.674 409.874 206.138 411.212C208.952 412.737 212.026 411.632 213.792 409.352C217.77 404.212 220.573 398.216 222.059 392.048C222.711 389.321 221.163 386.447 218.155 385.681Z" fill="#27374D"/>
<path d="M241.442 339.642C238.62 338.922 235.255 340.523 234.576 343.257C233.198 348.781 230.924 353.385 227.419 358.079C225.7 360.381 226.961 363.834 229.426 365.172C232.24 366.697 235.313 365.593 237.079 363.313C241.058 358.173 243.86 352.177 245.346 346.008C245.998 343.282 244.45 340.408 241.442 339.642Z" fill="#27374D"/>
<path d="M170.028 355.468C167.206 354.749 163.841 356.349 163.162 359.083C161.784 364.607 159.51 369.211 156.005 373.905C154.286 376.207 155.547 379.66 158.012 380.998C160.825 382.523 163.899 381.419 165.665 379.139C169.644 373.999 172.446 368.003 173.932 361.834C174.584 359.108 173.036 356.234 170.028 355.468Z" fill="#27374D"/>
<path d="M175.357 321.629C173.917 326.355 171.961 330.524 169.321 334.779C165.723 340.577 175.279 345.738 178.986 340.012C182.125 335.156 184.505 329.833 186.111 324.377C188.005 317.949 177.305 315.223 175.357 321.629Z" fill="#27374D"/>
<path d="M253.369 305.083C251.929 309.81 249.973 313.978 247.334 318.233C243.736 324.032 253.291 329.193 256.998 323.467C260.138 318.611 262.517 313.288 264.124 307.831C266.018 301.404 255.317 298.677 253.369 305.083Z" fill="#27374D"/>
<path d="M224.648 318.392C223.208 323.118 221.252 327.287 218.613 331.542C215.015 337.34 224.57 342.501 228.277 336.775C231.417 331.919 233.796 326.596 235.403 321.14C237.297 314.712 226.596 311.986 224.648 318.392Z" fill="#27374D"/>
<path d="M208.021 299.634C205.176 298.911 201.877 300.519 201.163 303.242C200.111 307.238 198.574 310.41 196.063 313.892C194.382 316.219 195.574 319.629 198.069 320.978C200.848 322.485 203.992 321.424 205.715 319.118C208.661 315.183 210.765 310.655 211.918 305.99C212.589 303.274 211.017 300.397 208.021 299.634Z" fill="#27374D"/>
<path d="M167.656 391.713C164.811 390.99 161.512 392.598 160.798 395.321C159.746 399.317 158.209 402.489 155.698 405.971C154.018 408.298 155.209 411.708 157.705 413.057C160.484 414.564 163.628 413.503 165.351 411.197C168.297 407.262 170.4 402.734 171.553 398.069C172.224 395.353 170.653 392.476 167.656 391.713Z" fill="#27374D"/>
<path d="M191.72 377.326C188.875 376.603 185.576 378.211 184.862 380.933C183.81 384.929 182.273 388.102 179.762 391.583C178.081 393.911 179.273 397.32 181.768 398.669C184.547 400.176 187.691 399.115 189.414 396.81C192.36 392.875 194.464 388.346 195.617 383.681C196.288 380.966 194.716 378.088 191.72 377.326Z" fill="#27374D"/>
<path d="M166.104 425.164C163.259 424.441 159.96 426.048 159.246 428.771C158.194 432.767 156.657 435.94 154.146 439.421C152.465 441.749 153.657 445.158 156.152 446.507C158.931 448.014 162.075 446.953 163.798 444.648C166.744 440.713 168.848 436.184 170.001 431.519C170.672 428.804 169.1 425.926 166.104 425.164Z" fill="#27374D"/>
<path d="M98.5049 167.746C98.0897 135.507 97.0805 103.258 95.0701 71.0662C95.0973 70.7389 95.1244 70.4116 95.1516 70.0843C77.9035 70.6454 24.2925 70.4763 23.6249 70.5015C18.6531 70.7065 14.2052 74.2998 14.3022 79.1411C15.6257 144.924 16.6077 209.839 17.0074 275.633C17.2442 314.719 17.3024 353.806 17.186 392.893C34.1468 388.821 50.0442 379.103 61.0552 366.694C67.9366 358.935 73.2228 350.591 76.8672 341.109C80.8455 330.758 81.8468 319.474 82.0486 308.562C82.2582 297.214 81.579 285.826 82.9685 274.525C83.9621 268.759 85.6349 263.188 87.9597 257.767C91.0453 251.347 94.8139 245.264 98.7456 239.265C98.7495 208.818 98.6913 182.338 98.5049 167.746Z" fill="#E3E0DA"/>
<path d="M320.91 192.456C307.29 188.42 292.487 190.19 279.66 195.819C265.548 202.013 254.921 213.918 250.19 227.604C245.288 241.786 246.961 257.785 251.762 271.78C257.165 287.534 266.22 301.871 273.299 316.974C277.397 326.229 280.654 335.797 282.307 345.699C283.045 351.738 283.134 357.806 282.431 363.852C281.616 368.578 280.308 373.2 278.438 377.66C276.66 381.225 274.514 384.588 272.018 387.767C265.094 395.616 256.497 401.968 248.036 408.341C238.547 415.488 229.554 423.027 221.656 431.71C204.043 451.072 188.941 474.753 187.008 500.528C186.969 501.035 186.942 501.549 186.915 502.06C189.356 501.607 191.794 501.15 194.231 500.697C207.873 498.165 221.496 495.554 235.104 492.863C248.583 490.194 262.047 487.45 275.492 484.623C282.338 483.184 289.181 481.724 296.016 480.245C301.391 479.084 307.201 477.976 311.746 474.893C315.006 472.681 317.401 469.944 318.74 466.372C319.951 463.146 319.997 459.603 320.063 456.222C320.137 452.237 320.211 448.248 320.289 444.263C320.584 441.788 320.727 439.303 320.797 436.86C321.076 427.127 320.995 417.376 321.076 407.64C321.243 387.81 321.41 367.978 321.577 348.148L322.082 287.941C322.221 270.539 321.162 213.393 320.91 192.456Z" fill="#F79E88"/>
<path d="M717.739 251.494C711.809 250.307 706.472 246.131 703.235 241.538C699.618 236.402 698.807 229.96 699.168 223.964C699.49 218.583 700.674 213.267 700.759 207.872C700.767 207.498 700.774 203.664 700.534 203.649C700.495 203.646 700.65 204.372 700.67 204.462C700.674 204.473 700.674 204.476 700.67 204.462C700.662 204.419 700.623 204.257 700.545 203.908C700.472 203.577 700.413 203.246 700.336 202.919C700.204 202.347 700.049 201.779 699.878 201.214C699.661 200.495 699.412 199.783 699.133 199.081C699.074 198.934 699.012 198.757 698.946 198.585C698.904 198.513 698.857 198.441 698.826 198.383C698.193 197.2 697.541 196.038 696.773 194.923C696.377 194.351 695.954 193.797 695.527 193.247C695.884 193.718 695.011 192.657 694.696 192.323C693.757 191.33 692.756 190.391 691.696 189.506C691.366 189.229 691.029 188.96 690.687 188.693C690.664 188.676 690.625 188.647 690.582 188.611C688.281 188.017 685.972 187.467 683.666 186.956C676.602 185.395 669.166 184.323 661.896 185.032C648.86 186.298 636.428 192.6 632.066 204.66C630.032 210.278 630.42 216.447 633.257 221.752C635.993 226.87 641.101 230.618 646.298 233.47C651.215 236.168 656.54 238.172 661.33 241.071C665.712 243.721 669.224 246.955 670.024 251.775C670.524 254.796 670.163 257.925 670.284 260.972C670.408 264.062 670.912 267.137 672.213 269.996C675.186 276.528 681.597 279.053 688.797 279.762C695.469 280.42 702.828 280.801 709.305 278.906C712.779 277.891 715.88 276.19 718.675 274.1C718.713 266.392 718.752 258.807 718.795 251.674C718.438 251.62 718.088 251.563 717.739 251.494Z" fill="#F79E88"/>
<path d="M1087.39 343.656C1085.46 338.257 1082.8 332.944 1079.17 328.333C1075.66 323.87 1071.69 319.881 1067.37 316.082C1063.72 312.863 1059.94 309.745 1056.52 306.306C1055.75 305.526 1054.99 304.731 1054.25 303.911C1054.18 303.824 1054.1 303.738 1054.03 303.652C1053.76 303.314 1053.49 302.976 1053.24 302.634C1052.6 301.767 1052 300.871 1051.44 299.958C1051.11 299.422 1050.8 298.875 1050.5 298.321C1050.37 298.084 1050.26 297.843 1050.13 297.602C1049.48 296.372 1050.37 298.307 1050.53 298.498C1049.82 297.645 1049.55 295.969 1049.26 294.944C1049 294.012 1048.79 293.07 1048.61 292.124C1048.3 289.049 1048.37 285.973 1048.71 282.902C1050.9 270.824 1057.83 259.173 1054.04 246.707C1053.46 244.797 1052.69 242.988 1051.76 241.279C1044.28 241.304 1036.81 241.329 1029.33 241.355C1021.71 241.38 1017.11 241.218 1009.5 241.247C1003.23 241.272 984.657 238.848 978.183 244.603C974.846 247.57 975.602 255.584 975.835 259.63C976.332 268.216 974.624 354.864 975.117 363.449C975.358 367.596 975.501 371.761 975.847 375.901C976.161 379.685 976.969 383.75 979.98 386.559C983.477 389.818 988.209 389.976 992.854 390.289C997.45 390.598 1002.05 390.871 1006.65 391.109C1009.69 391.267 1041.4 391.091 1082.51 390.803C1090.8 376.506 1093.04 359.396 1087.39 343.656Z" fill="#627A94"/>
<path d="M1123.13 364.539C1122.19 354.493 1120.21 344.505 1116.72 334.944C1113.43 325.916 1108.56 317.629 1104.43 308.961C1103.27 306.245 1102.32 303.476 1101.71 300.613C1101.6 299.127 1101.59 297.645 1101.71 296.156C1102.14 294.117 1102.76 292.131 1103.54 290.182C1105.86 285.614 1108.87 281.402 1112.15 277.377C1119.02 269.252 1126.32 260.954 1128.18 250.451C1128.74 247.268 1128.98 244.164 1128.99 241.049C1110.86 241.11 1092.74 241.171 1074.62 241.232C1059.64 241.283 1044.66 241.333 1029.69 241.383C1025.85 241.398 1022.78 241.362 1019.7 241.326C1018.76 244.182 1018.01 247.088 1017.51 250.034C1015.9 259.49 1015.9 268.532 1017.8 277.97C1019.24 285.171 1022.98 291.771 1024.51 298.911C1025.14 307.022 1022.75 315.162 1022.69 323.28C1022.63 332.675 1024.13 342.17 1026.43 351.306C1028.54 359.705 1031.47 367.909 1034.68 375.999C1036.66 380.984 1038.56 386.145 1040.84 391.105C1062.06 390.99 1091.11 390.782 1121.86 390.551C1123.95 382.12 1123.93 373.096 1123.13 364.539Z" fill="#627A94"/>
<path d="M1185.75 390.008C1186.72 388.185 1187.62 386.336 1188.49 384.476C1198.49 362.859 1206.24 340.232 1211.4 317.201C1214.06 305.342 1216.19 293.264 1217.23 281.19C1218.18 270.241 1217.76 258.583 1213.77 248.142C1212.79 245.57 1211.63 243.085 1210.31 240.711C1195.12 240.761 1179.92 240.812 1164.73 240.865C1143.13 240.937 1121.53 241.013 1099.93 241.085C1096.11 247.498 1093.36 254.49 1091.96 261.86C1090.09 271.669 1089.74 281.614 1088.47 291.484C1087.68 296.246 1086.53 300.929 1084.69 305.432C1081.93 310.939 1078.29 315.989 1074.34 320.827C1068.15 328.117 1061.53 335.124 1055.92 342.821C1053.33 346.382 1051.02 350.108 1049.18 354.054C1047.82 356.971 1046.49 359.888 1045.56 362.953C1044.48 366.553 1043.96 370.254 1043.45 373.959C1042.69 379.584 1042.26 385.365 1042.28 391.04C1078.37 390.832 1135.61 390.382 1185.75 390.008Z" fill="#B38740"/>
<path d="M1251.21 380.048C1255.81 364.086 1253.87 347.393 1251.25 331.311C1248.89 316.82 1246.04 302.235 1242.16 288.023C1238.29 273.82 1232.76 259.662 1224.28 247.232C1222.75 244.995 1221.15 242.826 1219.47 240.714C1201.28 240.776 1183.09 240.837 1164.89 240.898C1142.38 240.973 1119.87 241.049 1097.35 241.124C1097.31 243.498 1097.41 245.861 1097.68 248.185C1098.33 253.728 1099.35 259.119 1101.6 264.306C1104.22 270.323 1107.41 275.413 1111.93 280.391C1118.34 287.459 1126.93 292.545 1134.85 298.062C1138.07 300.44 1141.14 302.972 1143.81 305.871C1144.82 307.213 1145.72 308.608 1146.5 310.072C1147.14 311.773 1147.63 313.511 1147.99 315.284C1148.4 319.794 1148.08 324.312 1147.49 328.801C1145.34 342.569 1141.95 356.529 1146.03 370.297C1148.14 377.416 1152.05 384.203 1156.59 390.26C1190.14 390.008 1222.99 389.76 1247.47 389.609C1249.03 386.498 1250.28 383.282 1251.21 380.048Z" fill="#F79E88"/>
<path d="M1304.87 256.684C1304.15 250.656 1300.42 245.732 1294.4 243.283C1289.2 241.164 1283.49 240.625 1277.85 240.607C1270.33 240.585 1262.8 240.657 1255.27 240.682C1229.03 240.772 1202.8 240.858 1176.56 240.948C1176.52 241.567 1176.48 242.182 1176.44 242.804C1175.9 253.311 1177.36 263.752 1182.96 273.046C1187.57 280.686 1194.39 286.916 1200.28 293.696C1202.13 296.037 1203.8 298.472 1205.17 301.08C1206.12 303.483 1206.82 305.95 1207.29 308.472C1207.78 313.27 1207.55 318.082 1206.96 322.866C1205.82 329.941 1204.07 336.912 1202.5 343.915C1200.44 353.133 1198.93 362.467 1197.83 371.826C1197.12 377.865 1196.57 383.969 1196.89 390.048C1245.15 389.692 1284.54 389.436 1288 389.587C1292.22 389.774 1296.59 389.785 1300.39 387.843C1304.08 385.958 1306.5 382.39 1307.31 378.613C1308.11 374.898 1307.86 371.172 1307.69 367.417C1307.5 363.287 1305.24 259.832 1304.87 256.684Z" fill="#627A94"/>
<path d="M1163.77 398.569L1160.6 398.101C1159.31 397.91 1158.42 396.781 1158.63 395.58L1161.13 381.016C1161.33 379.815 1162.55 378.995 1163.85 379.185L1167.02 379.653C1168.31 379.843 1169.2 380.973 1168.99 382.174L1166.49 396.738C1166.29 397.943 1165.07 398.763 1163.77 398.569Z" fill="#27374D"/>
<path d="M1188.72 642.61C1188.87 635.632 1190.19 602.696 1190.96 603.041C1191.98 603.494 1193.08 605.03 1194.12 605.25C1194.67 604.879 1195.59 604.937 1195.88 605.573C1196.23 605.631 1196.57 605.689 1196.92 605.746C1196.93 605.746 1196.94 605.75 1196.94 605.75C1197.39 605.127 1198.5 605.282 1198.94 605.897C1199.09 606.113 1199.23 606.34 1199.35 606.57C1199.71 606.796 1200.04 607.073 1200.34 607.429C1200.4 607.498 1200.44 607.57 1200.48 607.642C1200.84 607.804 1201.09 608.124 1201.05 608.609C1200.8 611.264 1198.4 625.77 1197.61 628.28C1196.57 632.816 1195.46 637.388 1194.01 641.797C1193.46 643.47 1192.26 645.258 1190.12 645.193C1187.94 645.132 1188.68 644.394 1188.72 642.61Z" fill="#F28168"/>
<path d="M1178.57 641.197C1180.54 640.499 1182.37 639.837 1184.38 639.225C1185.81 638.787 1187.24 638.287 1188.77 638.333C1190.22 638.377 1193.92 639.254 1194.11 639.297C1195.9 639.711 1195.14 642.747 1194.83 644.448C1194.27 647.513 1191.23 646.416 1188.83 646.124C1185.2 645.678 1181.67 645.556 1178.08 644.923C1177.15 644.757 1175.53 644.498 1175.12 643.858C1174.89 643.488 1173.94 642.83 1178.57 641.197Z" fill="#27374D"/>
<path d="M1242.89 643.858C1242.03 636.923 1238.62 604.117 1239.44 604.361C1240.52 604.685 1241.83 606.073 1242.89 606.163C1243.38 605.728 1244.31 605.67 1244.68 606.268C1245.03 606.282 1245.38 606.296 1245.74 606.311C1245.75 606.311 1245.75 606.311 1245.76 606.311C1246.12 605.638 1247.24 605.656 1247.76 606.214C1247.95 606.411 1248.11 606.616 1248.26 606.829C1248.66 607.008 1249.03 607.242 1249.37 607.559C1249.43 607.62 1249.49 607.685 1249.54 607.753C1249.91 607.868 1250.21 608.156 1250.24 608.641C1250.37 611.303 1250.07 625.975 1249.65 628.561C1249.27 633.186 1248.82 637.851 1248.02 642.401C1247.72 644.124 1246.78 646.045 1244.66 646.246C1242.48 646.455 1243.1 645.631 1242.89 643.858Z" fill="#F28168"/>
<path d="M1232.62 643.707C1234.48 642.776 1236.19 641.891 1238.1 641.038C1239.45 640.427 1240.8 639.758 1242.33 639.614C1243.76 639.481 1247.56 639.891 1247.75 639.912C1249.59 640.099 1249.27 643.204 1249.21 644.927C1249.09 648.034 1245.92 647.322 1243.5 647.326C1239.84 647.329 1236.33 647.642 1232.68 647.459C1231.73 647.412 1230.09 647.351 1229.6 646.768C1229.31 646.43 1228.27 645.894 1232.62 643.707Z" fill="#27374D"/>
<path d="M1259.15 551.639C1258.39 541.935 1257.54 532.241 1256.64 522.548C1255.75 512.905 1255.04 503.208 1253.81 493.604C1253.18 488.63 1247.6 483.519 1245.77 478.821C1244.08 474.465 1246.22 469.084 1240.98 468.38C1238.77 468.081 1236.54 468.908 1235.9 471.261C1235.67 472.077 1235.76 473.041 1236.09 473.915C1235.55 473.775 1235 473.732 1234.5 473.807C1233.38 473.976 1232.54 474.48 1231.94 475.206C1230.55 472.484 1226.48 472.822 1224.8 475.224C1223.52 474.462 1221.78 474.386 1220.41 475.066C1220.41 475.005 1220.41 474.947 1220.42 474.886C1220.54 472.843 1218.74 471.03 1216.8 470.8C1214.63 470.541 1213 471.793 1212.23 473.782C1212.03 474.296 1211.85 474.814 1211.65 475.332C1211.46 475.368 1211.27 475.419 1211.09 475.498C1210.52 475.735 1209.98 476.008 1209.47 476.314C1209.25 476.019 1208.99 475.76 1208.72 475.555C1207.24 474.451 1203.74 477.566 1203.27 479.544C1200.94 489.256 1196.66 490.633 1194.65 495.769C1190.71 505.876 1189.58 516.462 1187.94 528.371C1185.09 548.956 1180.65 582.579 1178.69 603.268C1178.45 605.868 1178.21 608.465 1177.98 611.066C1177.76 613.576 1177.28 616.184 1177.72 618.687C1178.71 624.209 1184.58 625.493 1189.23 626.701C1193.92 627.924 1199.21 629.118 1204.08 628.985C1210.14 628.82 1211.76 622.863 1213.43 618.08C1215.26 612.821 1222.24 575.112 1223.26 569.641C1224.14 575.641 1224.12 613.691 1225 619.691C1225.47 622.896 1225.93 626.176 1228.94 628.057C1231.64 629.748 1235.51 629.568 1238.59 629.708C1246.37 630.064 1251.86 629.435 1259.53 628.09C1261.29 627.78 1262.61 625.773 1262.59 624.075C1262.34 604.138 1260.7 571.508 1259.15 551.639Z" fill="#27374D"/>
<path d="M1242.57 365.463C1240.22 361.748 1231.23 360.532 1226.72 360.755C1219.04 361.136 1215.76 366.953 1213.22 373.161C1212.51 373.927 1211.77 374.664 1210.99 375.437C1210.02 376.412 1208.48 377.308 1208.74 378.822C1208.9 379.75 1209.7 380.336 1210.55 380.761C1209.71 384.217 1209.36 388.116 1210.61 390.983C1211.76 393.655 1215.67 394.022 1218.08 395.673C1218.46 395.727 1217.29 395.939 1217.68 395.954C1219.05 396.004 1220.5 395.756 1221.87 395.598C1224.77 395.263 1227.55 394.814 1230.33 393.972C1231.35 393.666 1232.62 393.173 1233.88 392.911C1239.59 389.462 1243.67 383.376 1244.66 377.286C1245.31 373.323 1244.78 368.963 1242.57 365.463Z" fill="#F28168"/>
<path d="M1232.83 392.831L1218.16 394.26L1220.76 417.153L1235.42 415.724L1232.83 392.831Z" fill="#F28168"/>
<path d="M1254.51 480.26C1253.88 469.484 1253.93 452.021 1254.31 441.234C1254.65 431.695 1255.99 420.851 1251.98 414.258C1249.29 409.823 1248.3 407.237 1242.8 406.586C1236.74 405.87 1219.33 406.158 1213.56 407.604C1208.88 408.776 1205.14 411.665 1201.92 415.067C1196.67 420.599 1197.27 424.52 1196.25 431.66C1195.7 435.515 1195.41 439.403 1194.78 443.252C1194.15 447.119 1192.48 468.574 1191.92 472.44C1190.08 485.08 1187.94 484.54 1199.78 486.393C1203.86 487.029 1224.99 487.677 1234.56 486.529C1239.28 485.957 1254.79 485.159 1254.51 480.26Z" fill="#27374D"/>
<path d="M1211.84 414.01C1210.67 412.643 1207.41 411.862 1205.31 412.805C1197.04 416.524 1189.58 421.711 1182.28 426.894C1180.63 428.055 1178.95 429.235 1177.35 430.508C1175.57 426.721 1173.24 423.142 1171.18 419.488C1167.89 413.661 1165 407.665 1162.46 401.525C1163.39 398.637 1162.94 395.54 1161.04 392.972C1160.67 392.465 1159.97 392.335 1159.46 392.583C1159.49 392.224 1159.49 391.846 1159.52 391.515C1159.61 390.558 1159.71 389.605 1159.8 388.648C1159.85 388.184 1159.4 387.713 1158.94 387.602C1155.35 386.735 1154.12 392.551 1153.8 394.792C1153.52 396.666 1153.56 398.59 1153.99 400.442C1154.16 401.209 1154.42 401.942 1154.91 402.59C1155.28 403.068 1155.85 403.449 1156.3 403.899C1159.1 417.049 1163.28 431.667 1169.71 443.662C1171.74 447.46 1176.29 445.806 1179.39 444.666C1183.66 443.09 1187.62 440.892 1191.55 438.684C1195.45 436.49 1199.27 434.184 1203.01 431.774C1206.4 429.591 1210.02 427.372 1212.34 424.128C1214.55 421.027 1214.56 417.171 1211.84 414.01Z" fill="#F28168"/>
<path d="M1255.02 385.778C1254.2 382.685 1253.13 379.656 1252.51 376.516C1251.9 373.452 1251.41 370.51 1249.93 367.672C1246.92 361.92 1240.71 358.007 1233.94 357.183C1230.67 356.788 1226.79 356.867 1224.01 358.701C1222.8 359.496 1221.98 360.586 1221.44 361.809C1219.68 363.971 1219.31 367.474 1218.51 370.013C1216.48 376.473 1219.13 381.739 1218.61 383.052C1217.86 384.929 1211.89 387.76 1209.01 393.555C1208.34 394.907 1207.61 396.202 1207.55 397.709C1207.29 404.111 1212.64 405.687 1218.6 405.111C1221.78 404.806 1224.89 403.752 1228.09 403.73C1231.13 403.708 1234.05 404.698 1236.91 405.528C1239.84 406.381 1243.08 407.384 1246.18 407.129C1249.66 406.845 1252.21 404.971 1253.9 402.209C1256.98 397.184 1256.45 391.177 1255.02 385.778Z" fill="#FFF2E8"/>
<path d="M1221 374.074C1218.38 373.251 1215.81 372.319 1213.28 371.276C1213.67 370.445 1214.09 369.629 1214.55 368.823C1215.01 368.003 1213.68 367.276 1213.21 368.096C1211.94 370.337 1210.92 372.672 1210.17 375.107C1209.89 375.999 1211.39 376.38 1211.66 375.488C1211.97 374.506 1212.32 373.546 1212.71 372.603C1215.29 373.664 1217.92 374.625 1220.59 375.463C1221.54 375.758 1221.95 374.369 1221 374.074Z" fill="#27374D"/>
<path d="M1195.16 424.488C1195.13 424.452 1195.1 424.419 1195.07 424.383C1195.56 423.93 1195.57 423.024 1195.12 422.506C1194.5 421.801 1193.89 421.096 1193.27 420.387C1193.56 419.29 1192.3 418.236 1191.53 417.488C1190.51 416.503 1189.41 415.6 1188.31 414.697C1187.14 413.355 1175.41 400.928 1173.87 399.241C1173.94 399.04 1173.16 396.785 1173.07 396.544C1172.45 394.857 1171.67 393.227 1170.65 391.713C1170.23 391.087 1167.68 387.998 1166.93 388.393C1164.71 389.58 1164.98 391.544 1165.28 393.584C1165.5 395.083 1166.27 396.745 1167.02 397.997C1167.43 398.684 1168.87 400.486 1169.46 400.95C1170.78 403.863 1172.24 408.42 1173.58 411.32C1176.94 418.56 1180.44 422.437 1186.8 427.667C1187.33 428.106 1187.97 428.063 1188.45 427.793C1189.16 428.559 1189.89 429.318 1190.64 430.055C1191.7 431.095 1193.57 429.757 1192.78 428.53C1192.73 428.466 1192.69 428.404 1192.65 428.34C1193.23 428.084 1193.61 427.469 1193.38 426.804C1193.5 426.743 1193.61 426.653 1193.71 426.556C1193.75 426.57 1193.8 426.581 1193.84 426.595C1195.23 427.023 1195.97 425.372 1195.16 424.488Z" fill="#F28168"/>
<path opacity="0.58" d="M322.097 277.657C321.926 250.408 320.886 195.88 320.886 186.265C320.886 177.273 315.938 173.432 313.186 172.31C309.099 170.641 280.277 163.523 254.925 157.599C251.098 165.447 248.304 173.741 246.437 182.273C242.61 199.757 240.755 219.223 247.962 236.2C251.552 244.66 256.722 252.462 264.287 258.382C271.537 264.058 279.885 268.77 288.253 272.899C297.335 277.38 309.406 282.2 319.726 278.621C320.545 278.334 321.332 278.01 322.097 277.657Z" fill="white"/>
<path opacity="0.58" d="M271.059 422.412C267.31 416.373 261.795 411.373 256.109 406.902C252.833 404.327 249.418 401.824 245.777 399.702C242.478 397.781 238.942 396.339 235.333 394.993C223.449 390.558 210.4 389.832 198.469 385.573C196.758 384.847 195.089 384.037 193.49 383.106C192.938 382.782 192.407 382.437 191.867 382.095C190.951 381.365 190.066 380.617 189.228 379.807C188.735 379.329 188.258 378.84 187.796 378.336C187.866 378.433 187.939 378.538 188.017 378.653C187.936 378.534 187.85 378.419 187.765 378.304C187.765 378.304 187.765 378.304 187.765 378.3C187.454 377.959 187.02 377.322 186.981 377.236C186.562 376.675 186.142 376.11 185.758 375.524C184.536 373.661 183.48 371.715 182.517 369.726C178.035 359.28 175.776 348.17 170.843 337.85C165.82 327.348 156.983 318.356 145.367 314.111C145.883 349.907 146.395 385.699 146.911 421.495C147.288 447.579 147.66 473.667 148.037 499.751C148.072 502.118 149.873 504.571 152.454 505.128C159.572 506.657 166.651 505.938 173.758 504.733C180.62 503.567 187.458 502.265 194.297 500.996C207.939 498.463 221.562 495.852 235.17 493.162C247.57 490.709 259.951 488.184 272.321 485.598C274.828 478.271 276.528 470.725 277.467 462.963C279.09 449.532 278.496 434.393 271.059 422.412ZM159.999 494.885C159.999 494.755 159.995 494.622 159.995 494.493C160.162 494.629 160.336 494.762 160.511 494.892C160.34 494.892 160.169 494.892 159.999 494.885ZM187.8 378.336C187.155 377.419 186.958 377.175 186.985 377.239C187.249 377.592 187.513 377.948 187.769 378.304C187.78 378.315 187.788 378.326 187.8 378.336Z" fill="white"/>
<path d="M644.268 332.606C642.595 329.15 640.166 325.743 637.088 323.233C632.613 319.586 627.532 317.74 621.641 317.201C611.22 316.248 601.804 321.413 594.115 327.315C590.991 329.711 588.138 332.739 584.742 334.8C584.882 334.714 587.032 333.257 585.476 334.264C585.025 334.556 584.587 334.858 584.133 335.146C583.325 335.653 582.503 336.138 581.66 336.595C580.283 337.343 578.866 338.019 577.418 338.638C573.455 340.055 569.357 341.037 565.169 341.663C558.874 342.278 552.559 342.102 546.275 341.426C538.152 340.293 530.223 338.401 522.286 336.487C522.274 340.843 522.239 344.706 522.173 347.929C521.851 363.327 521.56 378.725 521.521 394.126C535.024 396.605 549.027 396.813 562.689 394.777C569.924 393.698 576.855 391.375 584.063 390.227C585.693 390.091 587.319 390.048 588.953 390.141C589.931 390.328 590.894 390.566 591.841 390.861C592.155 391.008 592.466 391.163 592.768 391.332C592.912 391.411 593.052 391.497 593.188 391.583C593.382 391.774 593.649 392.051 593.886 392.292C593.898 392.306 593.906 392.324 593.913 392.335C593.937 392.371 593.952 392.407 593.975 392.443C594.154 392.986 594.298 393.537 594.422 394.09C594.627 396.889 594.461 399.712 594.127 402.5C593.028 408.863 590.956 415.01 588.352 420.977C585.15 427.793 581.389 434.364 577.589 440.907C575.734 444.101 573.875 447.295 572.074 450.514C572.765 450.528 573.456 450.546 574.146 450.557C591.697 450.902 609.256 451.118 626.81 451.169C628.382 451.172 629.919 451.179 631.425 451.183C633.463 448.795 635.345 446.291 637.065 443.73C645.413 431.293 649.527 417.189 651.409 402.773C653.373 387.738 652.372 372.384 650.691 357.363C649.725 348.706 648.13 340.577 644.268 332.606Z" fill="#F79E88"/>
<path d="M570.719 147.499C570.688 147.427 570.657 147.359 570.63 147.287C570.622 147.269 570.61 147.244 570.603 147.222C570.587 147.19 570.572 147.154 570.556 147.121C570.316 146.607 569.927 145.913 570.719 147.499Z" fill="white"/>
<path d="M937.369 225.287C937.442 225.266 937.52 225.226 937.597 225.183C937.566 225.187 937.504 225.205 937.427 225.233C937.373 225.273 937.349 225.294 937.369 225.287Z" fill="white"/>
<path d="M936.103 225.417C936.103 225.417 936.2 225.439 936.336 225.475C936.208 225.421 936.119 225.396 936.103 225.417Z" fill="white"/>
<path d="M938.568 224.255C938.669 224.14 938.762 224.032 938.844 223.95C938.886 223.906 938.929 223.86 938.968 223.813C939.026 223.723 939.088 223.633 939.15 223.547C938.366 224.227 938.358 224.406 938.568 224.255Z" fill="white"/>
<path opacity="0.14" d="M738.321 49.8197C725.436 49.9168 712.546 49.9744 699.657 50.0104C699.315 49.4924 698.826 49.068 698.224 48.8918C696.082 48.2623 693.757 47.5789 691.498 47.4566C689.232 47.3343 687.858 48.4565 686.922 50.0391C672.539 50.0571 658.151 50.0427 643.767 49.9852C634.41 49.9492 625.052 49.8917 615.698 49.8233C615.644 49.7154 615.594 49.6075 615.535 49.4996C614.973 48.4278 613.374 47.5825 612.07 47.9458C610.292 48.4422 608.394 48.9745 606.694 49.7514C587.536 49.5931 568.375 49.3773 549.217 49.0896C546.186 49.0428 543.155 48.9925 540.124 48.9421C539.479 47.9674 537.997 47.2444 536.774 47.5861C535.47 47.9494 534.096 48.3342 532.784 48.8198C520.512 48.604 508.244 48.3702 495.975 48.1472C492.629 48.0861 492.629 55.5567 495.975 55.6394C506.823 55.9056 517.671 56.1286 528.519 56.3228C529.124 58.6715 529.722 61.0239 530.328 63.3726C529.699 63.592 529.311 63.7359 529.28 63.7718C528.018 64.5092 526.997 65.5379 526.466 66.9694C525.779 68.8254 526.213 70.8144 526.485 72.7064C526.772 74.7026 527.106 76.6917 527.49 78.6699C528.111 81.8639 528.364 86.6297 531.546 88.6583C533.223 89.7266 535.233 89.6367 537.1 89.1223C539.355 88.5037 541.591 87.7843 543.815 87.0721C545.67 86.4786 547.517 85.8636 549.361 85.2305C551.616 84.4536 554.011 83.8638 554.993 81.5942C555.641 80.0979 555.435 78.5225 554.962 77.001C554.317 74.9364 553.591 72.8898 552.908 70.836C552.311 69.0376 551.709 67.2392 551.111 65.4408C550.494 63.592 549.869 61.6821 547.983 60.5994C546.66 59.8405 545.092 59.7578 543.566 59.8225C543.283 58.7363 543.031 57.6464 542.767 56.5566C558.684 56.8048 574.6 56.9918 590.517 57.1537C595 57.2004 599.483 57.2328 603.966 57.2724C604.517 59.4233 605.068 61.5742 605.623 63.7251C604.994 63.9445 604.606 64.0884 604.575 64.1243C603.314 64.8617 602.293 65.8904 601.761 67.3219C601.074 69.1779 601.509 71.1669 601.78 73.0589C602.068 75.0551 602.401 77.0442 602.786 79.0224C603.407 82.2164 603.659 86.9822 606.842 89.0108C608.518 90.0791 610.529 89.9892 612.396 89.4748C614.65 88.8562 616.886 88.1368 619.11 87.4246C620.965 86.8311 622.813 86.2161 624.656 85.583C626.911 84.8061 629.306 84.2162 630.288 81.9466C630.936 80.4504 630.73 78.8749 630.257 77.3535C629.613 75.2889 628.887 73.2423 628.204 71.1885C627.606 69.3901 627.004 67.5917 626.407 65.7933C625.79 63.9445 625.165 62.0346 623.278 60.9519C621.955 60.193 620.387 60.1103 618.862 60.175C618.617 59.247 618.4 58.3119 618.175 57.3803C640.014 57.5313 661.85 57.5997 683.689 57.5817C683.557 57.9018 683.425 58.2219 683.293 58.5457C682.641 58.3982 682.23 58.3155 682.187 58.3262C680.697 58.2759 679.226 58.5888 677.918 59.4952C676.218 60.6678 675.372 62.5417 674.444 64.243C673.466 66.0414 672.535 67.8579 671.646 69.6958C670.214 72.656 667.524 76.724 668.917 80.0655C669.651 81.8243 671.366 82.7991 673.222 83.353C675.461 84.022 677.743 84.5939 680.014 85.1694C681.908 85.6478 683.81 86.1082 685.715 86.547C688.048 87.0829 690.388 87.849 692.581 86.4858C694.025 85.5866 694.817 84.1803 695.352 82.6768C696.078 80.6338 696.722 78.5656 697.409 76.5118C698.007 74.7134 698.609 72.915 699.206 71.1166C699.823 69.2678 700.468 67.3651 699.567 65.4839C698.939 64.1675 697.693 63.2791 696.392 62.5345C697.072 60.8656 697.829 59.2254 698.496 57.5529C711.77 57.5206 725.047 57.4558 738.321 57.3587C741.694 57.3551 741.702 49.7946 738.321 49.8197Z" fill="#D9D6D0"/>
<path opacity="0.14" d="M1274.78 28.6128C1261.9 28.7099 1249.01 28.7674 1236.12 28.8034C1235.78 28.2855 1235.29 27.861 1234.69 27.6848C1232.55 27.0553 1230.22 26.3719 1227.96 26.2496C1225.7 26.1274 1224.32 27.2496 1223.39 28.8322C1209 28.8502 1194.61 28.8358 1180.23 28.7782C1170.87 28.7423 1161.52 28.6847 1152.16 28.6164C1152.11 28.5085 1152.06 28.4006 1152 28.2926C1151.44 27.2208 1149.84 26.3755 1148.53 26.7388C1146.76 27.2352 1144.86 27.7675 1143.16 28.5444C1124 28.3862 1104.84 28.1704 1085.68 27.8826C1082.65 27.8358 1079.62 27.7855 1076.59 27.7351C1075.94 26.7604 1074.46 26.0374 1073.24 26.3791C1071.93 26.7424 1070.56 27.1273 1069.25 27.6128C1056.98 27.397 1044.71 27.1632 1032.44 26.9402C1029.09 26.8791 1029.09 34.3497 1032.44 34.4324C1043.29 34.6986 1054.13 34.9216 1064.98 35.1158C1065.59 37.4646 1066.19 39.8169 1066.79 42.1656C1066.16 42.385 1065.77 42.5289 1065.74 42.5649C1064.48 43.3022 1063.46 44.3309 1062.93 45.7625C1062.24 47.6184 1062.68 49.6075 1062.95 51.4994C1063.24 53.4956 1063.57 55.4847 1063.95 57.463C1064.58 60.6569 1064.83 65.4227 1068.01 67.4514C1069.69 68.5196 1071.7 68.4297 1073.56 67.9154C1075.82 67.2967 1078.05 66.5773 1080.28 65.8652C1082.13 65.2717 1083.98 64.6566 1085.82 64.0236C1088.08 63.2467 1090.47 62.6568 1091.46 60.3872C1092.1 58.8909 1091.9 57.3155 1091.43 55.794C1090.78 53.7294 1090.06 51.6828 1089.37 49.6291C1088.77 47.8306 1088.17 46.0322 1087.58 44.2338C1086.96 42.385 1086.33 40.4751 1084.45 39.3925C1083.12 38.6335 1081.56 38.5508 1080.03 38.6156C1079.75 37.5293 1079.49 36.4395 1079.23 35.3496C1095.15 35.5978 1111.06 35.7849 1126.98 35.9467C1131.46 35.9935 1135.95 36.0258 1140.43 36.0654C1140.98 38.2163 1141.53 40.3672 1142.09 42.5181C1141.46 42.7375 1141.07 42.8814 1141.04 42.9174C1139.78 43.6547 1138.76 44.6834 1138.22 46.115C1137.54 47.9709 1137.97 49.96 1138.24 51.8519C1138.53 53.8481 1138.87 55.8372 1139.25 57.8155C1139.87 61.0094 1140.12 65.7752 1143.31 67.8038C1144.98 68.8721 1146.99 68.7822 1148.86 68.2678C1151.11 67.6492 1153.35 66.9298 1155.57 66.2177C1157.43 65.6242 1159.28 65.0091 1161.12 64.3761C1163.37 63.5992 1165.77 63.0093 1166.75 60.7397C1167.4 59.2434 1167.19 57.668 1166.72 56.1465C1166.08 54.0819 1165.35 52.0353 1164.67 49.9815C1164.07 48.1831 1163.47 46.3847 1162.87 44.5863C1162.25 42.7375 1161.63 40.8276 1159.74 39.745C1158.42 38.986 1156.85 38.9033 1155.33 38.968C1155.08 38.0401 1154.86 37.1049 1154.64 36.1733C1176.48 36.3244 1198.31 36.3927 1220.15 36.3747C1220.02 36.6948 1219.89 37.015 1219.76 37.3387C1219.11 37.1912 1218.69 37.1085 1218.65 37.1193C1217.16 37.0689 1215.69 37.3818 1214.38 38.2882C1212.68 39.4608 1211.84 41.3348 1210.91 43.0361C1209.93 44.8345 1209 46.6509 1208.11 48.4889C1206.68 51.4491 1203.99 55.5171 1205.38 58.8585C1206.11 60.6174 1207.83 61.5921 1209.69 62.146C1211.92 62.815 1214.21 63.3869 1216.48 63.9624C1218.37 64.4408 1220.27 64.9012 1222.18 65.34C1224.51 65.8759 1226.85 66.6421 1229.04 65.2789C1230.49 64.3797 1231.28 62.9733 1231.82 61.4698C1232.54 59.4268 1233.19 57.3586 1233.87 55.3049C1234.47 53.5064 1235.07 51.708 1235.67 49.9096C1236.29 48.0608 1236.93 46.1581 1236.03 44.277C1235.4 42.9605 1234.16 42.0721 1232.86 41.3276C1233.54 39.6586 1234.29 38.0185 1234.96 36.346C1248.23 36.3136 1261.51 36.2488 1274.78 36.1517C1278.15 36.1517 1278.16 28.5876 1274.78 28.6128Z" fill="#D9D6D0"/>
</svg>
